# MagicaVoxel @ Ephtracy

# group
o 

# material
mtllib alga 3.mtl
usemtl palette

# normals
vn -1 0 0
vn 1 0 0
vn 0 0 1
vn 0 0 -1
vn 0 -1 0
vn 0 1 0

# texcoords
vt 0.884766 0.5
vt 0.888672 0.5
vt 0.892578 0.5

# verts
v -0.9 0 -5.96046e-08
v -0.9 0 -0.1
v -0.9 0.1 -5.96046e-08
v -0.9 0.1 -0.1
v -0.8 0 0.1
v -0.8 0 -5.96046e-08
v -0.8 0.1 -5.96046e-08
v -0.8 0.1 -0.1
v -0.8 0.2 0.1
v -0.8 0.2 -0.1
v -0.7 0.2 0.1
v -0.7 0.2 -5.96046e-08
v -0.7 0.2 -0.1
v -0.7 0.3 0.1
v -0.7 0.3 -5.96046e-08
v -0.7 0.3 -0.1
v -0.7 0.4 0.1
v -0.7 0.4 -5.96046e-08
v -0.7 0.4 -0.1
v -0.7 0.5 0.1
v -0.7 0.5 -5.96046e-08
v -0.7 0.5 -0.1
v -0.6 0.5 0.1
v -0.6 0.5 -5.96046e-08
v -0.6 0.6 0.1
v -0.6 0.6 -5.96046e-08
v -0.5 0.5 -5.96046e-08
v -0.5 0.5 -0.1
v -0.5 0.6 0.1
v -0.5 0.6 -5.96046e-08
v -0.5 0.7 0.1
v -0.5 0.7 -5.96046e-08
v -0.5 0.7 -0.1
v -0.4 0.7 0.1
v -0.4 0.7 -5.96046e-08
v -0.4 0.7 -0.1
v -0.4 0.9 0.2
v -0.4 0.9 0.1
v -0.4 0.9 -5.96046e-08
v -0.4 0.9 -0.1
v -0.4 1 0.2
v -0.4 1 0.1
v -0.4 1 -5.96046e-08
v -0.3 1 0.4
v -0.3 1 0.3
v -0.3 1 0.2
v -0.3 1 0.1
v -0.3 1.1 0.4
v -0.3 1.1 0.3
v -0.3 1.1 0.2
v -0.3 1.1 0.1
v -0.3 1.2 0.3
v -0.3 1.2 0.2
v 0.2 0 0.3
v 0.2 0 0.2
v 0.2 0.1 0.3
v 0.2 0.1 0.2
v 0.3 0 0.2
v 0.3 0 0.1
v 0.3 0.1 0.4
v 0.3 0.1 0.3
v 0.3 0.1 0.2
v 0.3 0.1 0.1
v 0.3 0.2 0.3
v 0.3 0.2 0.2
v 0.3 0.3 0.5
v 0.3 0.3 0.4
v 0.3 0.3 0.3
v 0.3 0.4 0.6
v 0.3 0.4 0.5
v 0.3 0.4 0.4
v 0.3 0.4 0.3
v 0.3 0.6 0.6
v 0.3 0.6 0.5
v 0.3 0.6 0.4
v 0.4 0.1 0.2
v 0.4 0.1 0.1
v 0.4 0.2 0.2
v 0.4 0.2 0.1
v 0.4 0.6 0.6
v 0.4 0.6 0.5
v 0.4 0.7 0.6
v 0.4 0.7 0.5
v 0.5 0.7 0.7
v 0.5 0.7 0.6
v 0.5 0.7 0.5
v 0.5 0.8 0.7
v 0.5 0.8 0.6
v 0.5 0.8 0.5
v 0.6 0.8 0.7
v 0.6 0.8 0.6
v 0.6 0.9 0.7
v 0.6 0.9 0.6
v 0.6 1 0.7
v 0.6 1 0.6
v 0.7 1 0.8
v 0.7 1 0.7
v 0.7 1 0.6
v 0.7 1.1 0.8
v 0.7 1.1 0.7
v 0.7 1.1 0.6
v -0.7 0.1 0.1
v -0.7 0.1 -5.96046e-08
v -0.7 0.2 0.1
v -0.7 0.2 -5.96046e-08
v -0.6 0.2 0.1
v -0.6 0.2 -5.96046e-08
v -0.6 0.3 0.1
v -0.6 0.3 -5.96046e-08
v -0.5 0 0.1
v -0.5 0 -0.1
v -0.5 0.1 0.1
v -0.5 0.1 -5.96046e-08
v -0.5 0.1 -0.1
v -0.5 0.4 -5.96046e-08
v -0.5 0.4 -0.1
v -0.4 0.4 0.1
v -0.4 0.4 -5.96046e-08
v -0.4 0.6 0.1
v -0.4 0.6 -5.96046e-08
v -0.3 0.4 -5.96046e-08
v -0.3 0.4 -0.1
v -0.3 0.6 0.1
v -0.3 0.6 -5.96046e-08
v -0.3 0.6 -0.1
v -0.3 0.7 0.1
v -0.3 0.7 -5.96046e-08
v -0.3 0.8 0.1
v -0.3 0.8 -5.96046e-08
v -0.3 0.8 -0.1
v -0.2 0.8 0.1
v -0.2 0.8 -0.1
v -0.2 0.9 0.2
v -0.2 0.9 0.1
v -0.2 0.9 -5.96046e-08
v -0.2 0.9 -0.1
v -0.2 1 0.4
v -0.2 1 0.3
v -0.2 1 0.2
v -0.2 1 0.1
v -0.2 1 -5.96046e-08
v -0.2 1.1 0.4
v -0.2 1.1 0.3
v -0.2 1.1 0.2
v -0.2 1.1 0.1
v -0.1 1 0.3
v -0.1 1 0.2
v -0.1 1.2 0.3
v -0.1 1.2 0.2
v 0.4 0.1 0.4
v 0.4 0.1 0.3
v 0.4 0.2 0.3
v 0.4 0.3 0.5
v 0.4 0.3 0.4
v 0.4 0.3 0.3
v 0.4 0.4 0.6
v 0.4 0.4 0.5
v 0.4 0.4 0.4
v 0.4 0.5 0.6
v 0.4 0.5 0.5
v 0.5 0 0.2
v 0.5 0 0.1
v 0.5 0.2 0.2
v 0.5 0.2 0.1
v 0.5 0.3 0.4
v 0.5 0.3 0.3
v 0.5 0.4 0.5
v 0.5 0.4 0.4
v 0.5 0.4 0.3
v 0.5 0.5 0.6
v 0.5 0.5 0.5
v 0.5 0.5 0.4
v 0.5 0.6 0.6
v 0.5 0.6 0.5
v 0.5 0.6 0.4
v 0.6 0 0.3
v 0.6 0 0.2
v 0.6 0.2 0.3
v 0.6 0.2 0.2
v 0.7 0.6 0.6
v 0.7 0.6 0.5
v 0.7 0.7 0.7
v 0.7 0.7 0.6
v 0.7 0.7 0.5
v 0.7 0.8 0.7
v 0.7 0.8 0.6
v 0.7 0.8 0.5
v 0.8 0.8 0.7
v 0.8 0.8 0.6
v 0.8 0.9 0.7
v 0.8 0.9 0.6
v 0.8 1 0.7
v 0.8 1 0.6
v 0.9 1 0.8
v 0.9 1 0.7
v 0.9 1 0.6
v 0.9 1.1 0.8
v 0.9 1.1 0.7
v 0.9 1.1 0.6
v 0.7 1 0.8
v 0.7 1.1 0.8
v 0.9 1 0.8
v 0.9 1.1 0.8
v 0.5 0.7 0.7
v 0.5 0.8 0.7
v 0.6 0.8 0.7
v 0.6 0.9 0.7
v 0.6 1 0.7
v 0.7 0.7 0.7
v 0.7 0.8 0.7
v 0.7 1 0.7
v 0.8 0.8 0.7
v 0.8 0.9 0.7
v 0.8 1 0.7
v 0.3 0.4 0.6
v 0.3 0.6 0.6
v 0.4 0.4 0.6
v 0.4 0.5 0.6
v 0.4 0.6 0.6
v 0.4 0.7 0.6
v 0.5 0.5 0.6
v 0.5 0.6 0.6
v 0.5 0.7 0.6
v 0.7 0.6 0.6
v 0.7 0.7 0.6
v 0.3 0.3 0.5
v 0.3 0.4 0.5
v 0.4 0.3 0.5
v 0.4 0.4 0.5
v 0.4 0.5 0.5
v 0.5 0.4 0.5
v 0.5 0.5 0.5
v -0.3 1 0.4
v -0.3 1.1 0.4
v -0.2 1 0.4
v -0.2 1.1 0.4
v 0.3 0.1 0.4
v 0.3 0.3 0.4
v 0.4 0.1 0.4
v 0.4 0.3 0.4
v 0.4 0.4 0.4
v 0.5 0.3 0.4
v 0.5 0.4 0.4
v -0.3 1.1 0.3
v -0.3 1.2 0.3
v -0.2 1 0.3
v -0.2 1.1 0.3
v -0.2 1.2 0.3
v -0.1 1 0.3
v -0.1 1.2 0.3
v 0.2 0 0.3
v 0.2 0.1 0.3
v 0.3 0.1 0.3
v 0.4 0 0.3
v 0.4 0.1 0.3
v 0.4 0.2 0.3
v 0.5 0 0.3
v 0.5 0.1 0.3
v 0.6 0 0.3
v 0.6 0.2 0.3
v -0.4 0.9 0.2
v -0.4 1 0.2
v -0.3 0.9 0.2
v -0.3 1 0.2
v -0.2 0.9 0.2
v -0.2 1 0.2
v -0.8 0 0.1
v -0.8 0.2 0.1
v -0.7 0.1 0.1
v -0.7 0.2 0.1
v -0.7 0.3 0.1
v -0.7 0.4 0.1
v -0.7 0.5 0.1
v -0.6 0.2 0.1
v -0.6 0.3 0.1
v -0.6 0.5 0.1
v -0.6 0.6 0.1
v -0.5 0 0.1
v -0.5 0.1 0.1
v -0.5 0.6 0.1
v -0.5 0.7 0.1
v -0.4 0.4 0.1
v -0.4 0.6 0.1
v -0.4 0.7 0.1
v -0.4 0.9 0.1
v -0.3 0.6 0.1
v -0.3 0.7 0.1
v -0.3 0.8 0.1
v -0.3 0.9 0.1
v -0.2 0.8 0.1
v -0.2 0.9 0.1
v -0.9 0 -5.96046e-08
v -0.9 0.1 -5.96046e-08
v -0.8 0 -5.96046e-08
v -0.8 0.1 -5.96046e-08
v -0.7 0.1 -5.96046e-08
v -0.7 0.2 -5.96046e-08
v -0.7 0.3 -5.96046e-08
v -0.7 0.4 -5.96046e-08
v -0.6 0.2 -5.96046e-08
v -0.6 0.3 -5.96046e-08
v -0.5 0.1 -5.96046e-08
v -0.5 0.4 -5.96046e-08
v -0.4 0.4 -5.96046e-08
v -0.4 0.6 -5.96046e-08
v -0.3 0.4 -5.96046e-08
v -0.3 0.6 -5.96046e-08
v 0.6 0.8 0.6
v 0.6 0.9 0.6
v 0.6 1 0.6
v 0.7 0.8 0.6
v 0.7 1 0.6
v 0.7 1.1 0.6
v 0.8 0.8 0.6
v 0.8 0.9 0.6
v 0.8 1 0.6
v 0.9 1 0.6
v 0.9 1.1 0.6
v 0.4 0.6 0.5
v 0.4 0.7 0.5
v 0.5 0.6 0.5
v 0.5 0.7 0.5
v 0.5 0.8 0.5
v 0.7 0.6 0.5
v 0.7 0.7 0.5
v 0.7 0.8 0.5
v 0.3 0.4 0.4
v 0.3 0.6 0.4
v 0.4 0.4 0.4
v 0.4 0.5 0.4
v 0.5 0.4 0.4
v 0.5 0.5 0.4
v 0.5 0.6 0.4
v 0.3 0.2 0.3
v 0.3 0.3 0.3
v 0.3 0.4 0.3
v 0.4 0.2 0.3
v 0.4 0.3 0.3
v 0.4 0.4 0.3
v 0.5 0.3 0.3
v 0.5 0.4 0.3
v -0.3 1.1 0.2
v -0.3 1.2 0.2
v -0.2 1 0.2
v -0.2 1.1 0.2
v -0.2 1.2 0.2
v -0.1 1 0.2
v -0.1 1.2 0.2
v 0.2 0 0.2
v 0.2 0.1 0.2
v 0.3 0 0.2
v 0.3 0.1 0.2
v 0.3 0.2 0.2
v 0.4 0.1 0.2
v 0.4 0.2 0.2
v 0.5 0 0.2
v 0.5 0.2 0.2
v 0.6 0 0.2
v 0.6 0.2 0.2
v -0.3 1 0.1
v -0.3 1.1 0.1
v -0.2 1 0.1
v -0.2 1.1 0.1
v 0.3 0 0.1
v 0.3 0.1 0.1
v 0.4 0.1 0.1
v 0.4 0.2 0.1
v 0.5 0 0.1
v 0.5 0.2 0.1
v -0.6 0.5 -5.96046e-08
v -0.6 0.6 -5.96046e-08
v -0.5 0.5 -5.96046e-08
v -0.5 0.6 -5.96046e-08
v -0.4 0.9 -5.96046e-08
v -0.4 1 -5.96046e-08
v -0.3 0.9 -5.96046e-08
v -0.3 1 -5.96046e-08
v -0.2 0.9 -5.96046e-08
v -0.2 1 -5.96046e-08
v -0.9 0 -0.1
v -0.9 0.1 -0.1
v -0.8 0.1 -0.1
v -0.8 0.2 -0.1
v -0.7 0.1 -0.1
v -0.7 0.2 -0.1
v -0.7 0.3 -0.1
v -0.7 0.4 -0.1
v -0.7 0.5 -0.1
v -0.6 0.2 -0.1
v -0.6 0.3 -0.1
v -0.5 0 -0.1
v -0.5 0.1 -0.1
v -0.5 0.4 -0.1
v -0.5 0.5 -0.1
v -0.5 0.7 -0.1
v -0.4 0.4 -0.1
v -0.4 0.6 -0.1
v -0.4 0.7 -0.1
v -0.4 0.9 -0.1
v -0.3 0.4 -0.1
v -0.3 0.6 -0.1
v -0.3 0.8 -0.1
v -0.2 0.8 -0.1
v -0.2 0.9 -0.1
v 0.2 0 0.3
v 0.4 0 0.3
v 0.5 0 0.3
v 0.6 0 0.3
v 0.2 0 0.2
v 0.3 0 0.2
v 0.4 0 0.2
v 0.5 0 0.2
v 0.6 0 0.2
v -0.8 0 0.1
v -0.5 0 0.1
v 0.3 0 0.1
v 0.5 0 0.1
v -0.9 0 -5.96046e-08
v -0.8 0 -5.96046e-08
v -0.9 0 -0.1
v -0.5 0 -0.1
v 0.3 0.1 0.4
v 0.4 0.1 0.4
v 0.3 0.1 0.3
v 0.4 0.1 0.3
v -0.7 0.2 0.1
v -0.6 0.2 0.1
v -0.7 0.2 -5.96046e-08
v -0.6 0.2 -5.96046e-08
v 0.3 0.3 0.5
v 0.4 0.3 0.5
v 0.3 0.3 0.4
v 0.4 0.3 0.4
v 0.5 0.3 0.4
v 0.4 0.3 0.3
v 0.5 0.3 0.3
v 0.3 0.4 0.6
v 0.4 0.4 0.6
v 0.3 0.4 0.5
v 0.4 0.4 0.5
v 0.5 0.4 0.5
v 0.4 0.4 0.4
v 0.5 0.4 0.4
v -0.7 0.4 0.1
v -0.4 0.4 0.1
v -0.7 0.4 -5.96046e-08
v -0.5 0.4 -5.96046e-08
v -0.4 0.4 -5.96046e-08
v -0.3 0.4 -5.96046e-08
v -0.5 0.4 -0.1
v -0.4 0.4 -0.1
v -0.3 0.4 -0.1
v 0.4 0.5 0.6
v 0.5 0.5 0.6
v 0.4 0.5 0.5
v 0.5 0.5 0.5
v 0.5 0.6 0.6
v 0.7 0.6 0.6
v 0.5 0.6 0.5
v 0.7 0.6 0.5
v -0.4 0.6 0.1
v -0.3 0.6 0.1
v -0.4 0.6 -5.96046e-08
v -0.3 0.6 -5.96046e-08
v 0.5 0.7 0.7
v 0.7 0.7 0.7
v 0.5 0.7 0.6
v 0.7 0.7 0.6
v 0.7 0.8 0.7
v 0.8 0.8 0.7
v 0.7 0.8 0.6
v 0.8 0.8 0.6
v -0.3 0.8 0.1
v -0.2 0.8 0.1
v -0.3 0.8 -5.96046e-08
v -0.3 0.8 -0.1
v -0.2 0.8 -0.1
v -0.4 0.9 0.2
v -0.3 0.9 0.2
v -0.2 0.9 0.2
v -0.4 0.9 0.1
v -0.3 0.9 0.1
v -0.2 0.9 0.1
v 0.7 1 0.8
v 0.9 1 0.8
v 0.7 1 0.7
v 0.8 1 0.7
v 0.9 1 0.7
v 0.8 1 0.6
v 0.9 1 0.6
v -0.3 1 0.4
v -0.2 1 0.4
v -0.3 1 0.3
v -0.2 1 0.3
v -0.1 1 0.3
v -0.3 1 0.2
v -0.2 1 0.2
v -0.1 1 0.2
v 0.2 0.1 0.3
v 0.3 0.1 0.3
v 0.2 0.1 0.2
v 0.3 0.1 0.2
v 0.4 0.1 0.2
v -0.7 0.1 0.1
v -0.5 0.1 0.1
v 0.3 0.1 0.1
v 0.4 0.1 0.1
v -0.9 0.1 -5.96046e-08
v -0.8 0.1 -5.96046e-08
v -0.7 0.1 -5.96046e-08
v -0.5 0.1 -5.96046e-08
v -0.9 0.1 -0.1
v -0.8 0.1 -0.1
v 0.3 0.2 0.3
v 0.4 0.2 0.3
v 0.6 0.2 0.3
v 0.3 0.2 0.2
v 0.4 0.2 0.2
v 0.5 0.2 0.2
v 0.6 0.2 0.2
v -0.8 0.2 0.1
v -0.7 0.2 0.1
v 0.4 0.2 0.1
v 0.5 0.2 0.1
v -0.7 0.2 -5.96046e-08
v -0.8 0.2 -0.1
v -0.7 0.2 -0.1
v -0.7 0.3 0.1
v -0.6 0.3 0.1
v -0.7 0.3 -5.96046e-08
v -0.6 0.3 -5.96046e-08
v 0.3 0.4 0.4
v 0.4 0.4 0.4
v 0.5 0.4 0.4
v 0.3 0.4 0.3
v 0.4 0.4 0.3
v 0.5 0.4 0.3
v -0.7 0.5 0.1
v -0.6 0.5 0.1
v -0.7 0.5 -5.96046e-08
v -0.6 0.5 -5.96046e-08
v -0.5 0.5 -5.96046e-08
v -0.7 0.5 -0.1
v -0.5 0.5 -0.1
v 0.3 0.6 0.6
v 0.4 0.6 0.6
v 0.3 0.6 0.5
v 0.4 0.6 0.5
v 0.5 0.6 0.5
v 0.3 0.6 0.4
v 0.5 0.6 0.4
v -0.6 0.6 0.1
v -0.5 0.6 0.1
v -0.6 0.6 -5.96046e-08
v -0.5 0.6 -5.96046e-08
v 0.4 0.7 0.6
v 0.5 0.7 0.6
v 0.4 0.7 0.5
v 0.5 0.7 0.5
v -0.5 0.7 0.1
v -0.4 0.7 0.1
v -0.5 0.7 -5.96046e-08
v -0.4 0.7 -5.96046e-08
v -0.5 0.7 -0.1
v -0.4 0.7 -0.1
v 0.5 0.8 0.7
v 0.6 0.8 0.7
v 0.5 0.8 0.6
v 0.6 0.8 0.6
v 0.7 0.8 0.6
v 0.5 0.8 0.5
v 0.7 0.8 0.5
v -0.4 0.9 -5.96046e-08
v -0.3 0.9 -5.96046e-08
v -0.2 0.9 -5.96046e-08
v -0.4 0.9 -0.1
v -0.2 0.9 -0.1
v 0.6 1 0.7
v 0.7 1 0.7
v 0.6 1 0.6
v 0.7 1 0.6
v -0.4 1 0.2
v -0.3 1 0.2
v -0.4 1 0.1
v -0.3 1 0.1
v -0.2 1 0.1
v -0.4 1 -5.96046e-08
v -0.3 1 -5.96046e-08
v -0.2 1 -5.96046e-08
v 0.7 1.1 0.8
v 0.9 1.1 0.8
v 0.7 1.1 0.7
v 0.9 1.1 0.7
v 0.7 1.1 0.6
v 0.9 1.1 0.6
v -0.3 1.1 0.4
v -0.2 1.1 0.4
v -0.3 1.1 0.3
v -0.2 1.1 0.3
v -0.3 1.1 0.2
v -0.2 1.1 0.2
v -0.3 1.1 0.1
v -0.2 1.1 0.1
v -0.3 1.2 0.3
v -0.2 1.2 0.3
v -0.1 1.2 0.3
v -0.3 1.2 0.2
v -0.2 1.2 0.2
v -0.1 1.2 0.2

# faces
f 3/3/1 2/3/1 1/3/1
f 4/3/1 2/3/1 3/3/1
f 7/3/1 6/3/1 5/3/1
f 9/3/1 7/3/1 5/3/1
f 9/3/1 8/3/1 7/3/1
f 10/3/1 8/3/1 9/3/1
f 14/1/1 12/1/1 11/1/1
f 15/3/1 13/3/1 12/3/1
f 15/1/1 12/1/1 14/1/1
f 16/3/1 13/3/1 15/3/1
f 18/1/1 16/1/1 15/1/1
f 19/1/1 16/1/1 18/1/1
f 20/1/1 18/1/1 17/1/1
f 21/3/1 19/3/1 18/3/1
f 21/1/1 18/1/1 20/1/1
f 22/3/1 19/3/1 21/3/1
f 25/1/1 24/1/1 23/1/1
f 26/1/1 24/1/1 25/1/1
f 30/3/1 28/3/1 27/3/1
f 31/1/1 30/1/1 29/1/1
f 32/3/1 28/3/1 30/3/1
f 32/1/1 30/1/1 31/1/1
f 33/3/1 28/3/1 32/3/1
f 38/1/1 35/1/1 34/1/1
f 39/3/1 36/3/1 35/3/1
f 39/1/1 35/1/1 38/1/1
f 40/3/1 36/3/1 39/3/1
f 41/1/1 38/1/1 37/1/1
f 42/2/1 39/2/1 38/2/1
f 42/1/1 38/1/1 41/1/1
f 43/2/1 39/2/1 42/2/1
f 48/1/1 45/1/1 44/1/1
f 49/3/1 47/3/1 46/3/1
f 49/1/1 45/1/1 48/1/1
f 49/3/1 46/3/1 45/3/1
f 50/3/1 47/3/1 49/3/1
f 51/3/1 47/3/1 50/3/1
f 52/1/1 50/1/1 49/1/1
f 53/1/1 50/1/1 52/1/1
f 56/1/1 55/1/1 54/1/1
f 57/1/1 55/1/1 56/1/1
f 62/3/1 59/3/1 58/3/1
f 63/3/1 59/3/1 62/3/1
f 64/1/1 61/1/1 60/1/1
f 64/3/1 62/3/1 61/3/1
f 65/3/1 62/3/1 64/3/1
f 67/1/1 64/1/1 60/1/1
f 68/1/1 64/1/1 67/1/1
f 70/1/1 67/1/1 66/1/1
f 71/3/1 68/3/1 67/3/1
f 71/1/1 67/1/1 70/1/1
f 72/3/1 68/3/1 71/3/1
f 73/1/1 70/1/1 69/1/1
f 74/3/1 71/3/1 70/3/1
f 74/1/1 70/1/1 73/1/1
f 75/3/1 71/3/1 74/3/1
f 78/3/1 77/3/1 76/3/1
f 79/3/1 77/3/1 78/3/1
f 82/1/1 81/1/1 80/1/1
f 83/1/1 81/1/1 82/1/1
f 87/1/1 85/1/1 84/1/1
f 88/3/1 86/3/1 85/3/1
f 88/1/1 85/1/1 87/1/1
f 89/3/1 86/3/1 88/3/1
f 92/1/1 91/1/1 90/1/1
f 93/1/1 91/1/1 92/1/1
f 94/3/1 93/3/1 92/3/1
f 95/3/1 93/3/1 94/3/1
f 99/1/1 97/1/1 96/1/1
f 100/3/1 98/3/1 97/3/1
f 100/1/1 97/1/1 99/1/1
f 101/3/1 98/3/1 100/3/1
f 102/3/2 103/3/2 104/3/2
f 104/3/2 103/3/2 105/3/2
f 106/1/2 107/1/2 108/1/2
f 108/1/2 107/1/2 109/1/2
f 110/3/2 111/3/2 112/3/2
f 112/3/2 111/3/2 113/3/2
f 113/3/2 111/3/2 114/3/2
f 113/1/2 114/1/2 115/1/2
f 115/1/2 114/1/2 116/1/2
f 117/1/2 118/1/2 119/1/2
f 119/1/2 118/1/2 120/1/2
f 121/1/2 122/1/2 124/1/2
f 124/1/2 122/1/2 125/1/2
f 123/3/2 124/3/2 126/3/2
f 124/3/2 125/3/2 126/3/2
f 126/3/2 125/3/2 127/3/2
f 126/1/2 127/1/2 128/1/2
f 127/3/2 125/3/2 129/3/2
f 128/1/2 127/1/2 129/1/2
f 129/3/2 125/3/2 130/3/2
f 131/3/2 132/3/2 134/3/2
f 134/3/2 132/3/2 135/3/2
f 135/3/2 132/3/2 136/3/2
f 133/3/2 134/3/2 139/3/2
f 134/3/2 135/3/2 139/3/2
f 139/3/2 135/3/2 140/3/2
f 140/3/2 135/3/2 141/3/2
f 137/1/2 138/1/2 142/1/2
f 142/1/2 138/1/2 143/1/2
f 139/3/2 140/3/2 144/3/2
f 144/3/2 140/3/2 145/3/2
f 146/3/2 147/3/2 148/3/2
f 148/3/2 147/3/2 149/3/2
f 150/1/2 151/1/2 152/1/2
f 150/1/2 152/1/2 154/1/2
f 154/1/2 152/1/2 155/1/2
f 153/1/2 154/1/2 157/1/2
f 157/1/2 154/1/2 158/1/2
f 156/1/2 157/1/2 159/1/2
f 159/1/2 157/1/2 160/1/2
f 161/3/2 162/3/2 163/3/2
f 163/3/2 162/3/2 164/3/2
f 165/1/2 166/1/2 168/1/2
f 168/1/2 166/1/2 169/1/2
f 167/1/2 168/1/2 171/1/2
f 171/1/2 168/1/2 172/1/2
f 170/1/2 171/1/2 173/1/2
f 171/3/2 172/3/2 174/3/2
f 173/1/2 171/1/2 174/1/2
f 174/3/2 172/3/2 175/3/2
f 176/1/2 177/1/2 178/1/2
f 178/1/2 177/1/2 179/1/2
f 180/1/2 181/1/2 183/1/2
f 183/1/2 181/1/2 184/1/2
f 182/1/2 183/1/2 185/1/2
f 183/3/2 184/3/2 186/3/2
f 185/1/2 183/1/2 186/1/2
f 186/3/2 184/3/2 187/3/2
f 188/1/2 189/1/2 190/1/2
f 190/1/2 189/1/2 191/1/2
f 190/3/2 191/3/2 192/3/2
f 192/3/2 191/3/2 193/3/2
f 194/1/2 195/1/2 197/1/2
f 195/3/2 196/3/2 198/3/2
f 197/1/2 195/1/2 198/1/2
f 198/3/2 196/3/2 199/3/2
f 202/1/3 201/1/3 200/1/3
f 203/1/3 201/1/3 202/1/3
f 206/1/3 205/1/3 204/1/3
f 209/1/3 206/1/3 204/1/3
f 209/1/3 207/1/3 206/1/3
f 210/1/3 207/1/3 209/1/3
f 211/3/3 208/3/3 207/3/3
f 212/1/3 207/1/3 210/1/3
f 213/3/3 211/3/3 207/3/3
f 213/1/3 207/1/3 212/1/3
f 214/3/3 211/3/3 213/3/3
f 217/1/3 216/1/3 215/1/3
f 218/1/3 216/1/3 217/1/3
f 219/1/3 216/1/3 218/1/3
f 221/1/3 220/1/3 219/1/3
f 221/1/3 219/1/3 218/1/3
f 222/1/3 220/1/3 221/1/3
f 223/1/3 220/1/3 222/1/3
f 224/1/3 223/1/3 222/1/3
f 225/1/3 223/1/3 224/1/3
f 228/1/3 227/1/3 226/1/3
f 229/1/3 227/1/3 228/1/3
f 231/1/3 230/1/3 229/1/3
f 232/1/3 230/1/3 231/1/3
f 235/1/3 234/1/3 233/1/3
f 236/1/3 234/1/3 235/1/3
f 239/1/3 238/1/3 237/1/3
f 240/1/3 238/1/3 239/1/3
f 242/1/3 241/1/3 240/1/3
f 243/1/3 241/1/3 242/1/3
f 247/1/3 245/1/3 244/1/3
f 248/1/3 245/1/3 247/1/3
f 249/3/3 247/3/3 246/3/3
f 249/3/3 248/3/3 247/3/3
f 250/3/3 248/3/3 249/3/3
f 253/1/3 252/1/3 251/1/3
f 254/1/3 253/1/3 251/1/3
f 255/1/3 253/1/3 254/1/3
f 257/3/3 255/3/3 254/3/3
f 258/1/3 256/1/3 255/1/3
f 258/3/3 255/3/3 257/3/3
f 259/1/3 258/1/3 257/1/3
f 260/1/3 256/1/3 258/1/3
f 260/1/3 258/1/3 259/1/3
f 263/1/3 262/1/3 261/1/3
f 264/1/3 262/1/3 263/1/3
f 265/3/3 264/3/3 263/3/3
f 266/3/3 264/3/3 265/3/3
f 269/3/3 268/3/3 267/3/3
f 270/3/3 268/3/3 269/3/3
f 274/1/3 271/1/3 270/1/3
f 275/1/3 271/1/3 274/1/3
f 276/1/3 273/1/3 272/1/3
f 278/3/3 269/3/3 267/3/3
f 279/3/3 269/3/3 278/3/3
f 280/1/3 277/1/3 276/1/3
f 282/1/3 281/1/3 280/1/3
f 282/1/3 280/1/3 276/1/3
f 282/1/3 276/1/3 272/1/3
f 283/1/3 281/1/3 282/1/3
f 284/1/3 281/1/3 283/1/3
f 286/3/3 284/3/3 283/3/3
f 287/1/3 285/1/3 284/1/3
f 287/3/3 284/3/3 286/3/3
f 288/1/3 285/1/3 287/1/3
f 289/1/3 285/1/3 288/1/3
f 290/3/3 289/3/3 288/3/3
f 291/3/3 289/3/3 290/3/3
f 294/3/3 293/3/3 292/3/3
f 295/3/3 293/3/3 294/3/3
f 300/1/3 297/1/3 296/1/3
f 301/1/3 299/1/3 298/1/3
f 302/1/3 300/1/3 296/1/3
f 302/1/3 301/1/3 300/1/3
f 303/1/3 299/1/3 301/1/3
f 303/1/3 301/1/3 302/1/3
f 306/1/3 305/1/3 304/1/3
f 307/1/3 305/1/3 306/1/3
f 308/1/4 309/1/4 311/1/4
f 309/3/4 310/3/4 312/3/4
f 311/1/4 309/1/4 314/1/4
f 312/3/4 313/3/4 315/3/4
f 314/1/4 309/1/4 315/1/4
f 309/3/4 312/3/4 315/3/4
f 315/3/4 313/3/4 316/3/4
f 316/3/4 313/3/4 317/3/4
f 317/3/4 313/3/4 318/3/4
f 319/1/4 320/1/4 321/1/4
f 321/1/4 320/1/4 322/1/4
f 321/1/4 322/1/4 324/1/4
f 322/3/4 323/3/4 325/3/4
f 324/1/4 322/1/4 325/1/4
f 325/3/4 323/3/4 326/3/4
f 327/3/4 328/3/4 329/3/4
f 329/3/4 328/3/4 330/3/4
f 329/1/4 330/1/4 331/1/4
f 330/3/4 328/3/4 332/3/4
f 331/1/4 330/1/4 332/1/4
f 332/3/4 328/3/4 333/3/4
f 334/1/4 335/1/4 337/1/4
f 335/3/4 336/3/4 338/3/4
f 337/1/4 335/1/4 338/1/4
f 338/3/4 336/3/4 339/3/4
f 338/1/4 339/1/4 340/1/4
f 340/1/4 339/1/4 341/1/4
f 342/1/4 343/1/4 345/1/4
f 345/1/4 343/1/4 346/1/4
f 344/3/4 345/3/4 347/3/4
f 345/3/4 346/3/4 347/3/4
f 347/3/4 346/3/4 348/3/4
f 349/1/4 350/1/4 351/1/4
f 351/1/4 350/1/4 352/1/4
f 352/3/4 353/3/4 354/3/4
f 354/3/4 353/3/4 355/3/4
f 356/1/4 357/1/4 358/1/4
f 358/1/4 357/1/4 359/1/4
f 360/3/4 361/3/4 362/3/4
f 362/3/4 361/3/4 363/3/4
f 364/3/4 365/3/4 366/3/4
f 364/3/4 366/3/4 368/3/4
f 366/3/4 367/3/4 368/3/4
f 368/3/4 367/3/4 369/3/4
f 370/1/4 371/1/4 372/1/4
f 372/1/4 371/1/4 373/1/4
f 374/2/4 375/2/4 376/2/4
f 376/2/4 375/2/4 377/2/4
f 376/3/4 377/3/4 378/3/4
f 378/3/4 377/3/4 379/3/4
f 380/3/4 381/3/4 382/3/4
f 380/3/4 382/3/4 384/3/4
f 382/3/4 383/3/4 384/3/4
f 384/3/4 383/3/4 385/3/4
f 384/1/4 385/1/4 389/1/4
f 385/3/4 386/3/4 389/3/4
f 386/1/4 387/1/4 390/1/4
f 389/3/4 386/3/4 390/3/4
f 380/3/4 384/3/4 391/3/4
f 384/1/4 389/1/4 392/1/4
f 391/3/4 384/3/4 392/3/4
f 389/1/4 390/1/4 392/1/4
f 390/1/4 387/1/4 393/1/4
f 392/1/4 390/1/4 393/1/4
f 387/3/4 388/3/4 393/3/4
f 393/3/4 388/3/4 394/3/4
f 394/3/4 395/3/4 396/3/4
f 393/3/4 394/3/4 396/3/4
f 396/3/4 395/3/4 397/3/4
f 397/3/4 395/3/4 398/3/4
f 396/1/4 397/1/4 400/1/4
f 398/3/4 399/3/4 401/3/4
f 400/1/4 397/1/4 401/1/4
f 397/3/4 398/3/4 401/3/4
f 401/3/4 399/3/4 402/3/4
f 402/3/4 399/3/4 403/3/4
f 403/3/4 399/3/4 404/3/4
f 409/1/5 406/1/5 405/1/5
f 410/1/5 406/1/5 409/1/5
f 411/3/5 407/3/5 406/3/5
f 411/1/5 406/1/5 410/1/5
f 412/1/5 408/1/5 407/1/5
f 412/3/5 407/3/5 411/3/5
f 413/1/5 408/1/5 412/1/5
f 416/3/5 411/3/5 410/3/5
f 416/3/5 412/3/5 411/3/5
f 417/3/5 412/3/5 416/3/5
f 419/3/5 415/3/5 414/3/5
f 420/3/5 419/3/5 418/3/5
f 421/3/5 415/3/5 419/3/5
f 421/3/5 419/3/5 420/3/5
f 424/1/5 423/1/5 422/1/5
f 425/1/5 423/1/5 424/1/5
f 428/1/5 427/1/5 426/1/5
f 429/1/5 427/1/5 428/1/5
f 432/1/5 431/1/5 430/1/5
f 433/1/5 431/1/5 432/1/5
f 435/1/5 434/1/5 433/1/5
f 436/1/5 434/1/5 435/1/5
f 439/1/5 438/1/5 437/1/5
f 440/1/5 438/1/5 439/1/5
f 442/1/5 441/1/5 440/1/5
f 443/1/5 441/1/5 442/1/5
f 446/1/5 445/1/5 444/1/5
f 447/1/5 445/1/5 446/1/5
f 448/1/5 445/1/5 447/1/5
f 450/3/5 448/3/5 447/3/5
f 451/1/5 449/1/5 448/1/5
f 451/3/5 448/3/5 450/3/5
f 452/1/5 449/1/5 451/1/5
f 455/1/5 454/1/5 453/1/5
f 456/1/5 454/1/5 455/1/5
f 459/1/5 458/1/5 457/1/5
f 460/1/5 458/1/5 459/1/5
f 463/3/5 462/3/5 461/3/5
f 464/3/5 462/3/5 463/3/5
f 467/1/5 466/1/5 465/1/5
f 468/1/5 466/1/5 467/1/5
f 471/1/5 470/1/5 469/1/5
f 472/1/5 470/1/5 471/1/5
f 475/3/5 474/3/5 473/3/5
f 476/3/5 474/3/5 475/3/5
f 477/3/5 474/3/5 476/3/5
f 481/1/5 479/1/5 478/1/5
f 482/3/5 480/3/5 479/3/5
f 482/1/5 479/1/5 481/1/5
f 483/3/5 480/3/5 482/3/5
f 486/1/5 485/1/5 484/1/5
f 487/1/5 485/1/5 486/1/5
f 488/1/5 485/1/5 487/1/5
f 489/3/5 488/3/5 487/3/5
f 490/3/5 488/3/5 489/3/5
f 493/1/5 492/1/5 491/1/5
f 494/1/5 492/1/5 493/1/5
f 496/3/5 494/3/5 493/3/5
f 496/3/5 495/3/5 494/3/5
f 497/3/5 495/3/5 496/3/5
f 498/3/5 495/3/5 497/3/5
f 499/1/6 500/1/6 501/1/6
f 501/1/6 500/1/6 502/1/6
f 502/3/6 503/3/6 506/3/6
f 506/3/6 503/3/6 507/3/6
f 504/3/6 505/3/6 510/3/6
f 510/3/6 505/3/6 511/3/6
f 508/3/6 509/3/6 512/3/6
f 512/3/6 509/3/6 513/3/6
f 514/3/6 515/3/6 517/3/6
f 515/1/6 516/1/6 518/1/6
f 517/3/6 515/3/6 518/3/6
f 518/1/6 516/1/6 519/1/6
f 519/1/6 516/1/6 520/1/6
f 518/3/6 519/3/6 523/3/6
f 523/3/6 519/3/6 524/3/6
f 521/3/6 522/3/6 525/3/6
f 521/3/6 525/3/6 526/3/6
f 526/3/6 525/3/6 527/3/6
f 528/1/6 529/1/6 530/1/6
f 530/1/6 529/1/6 531/1/6
f 532/3/6 533/3/6 535/3/6
f 533/1/6 534/1/6 536/1/6
f 535/3/6 533/3/6 536/3/6
f 536/1/6 534/1/6 537/1/6
f 538/1/6 539/1/6 540/1/6
f 540/1/6 539/1/6 541/1/6
f 540/3/6 541/3/6 543/3/6
f 541/3/6 542/3/6 543/3/6
f 543/3/6 542/3/6 544/3/6
f 545/1/6 546/1/6 547/1/6
f 547/1/6 546/1/6 548/1/6
f 547/3/6 548/3/6 550/3/6
f 548/3/6 549/3/6 550/3/6
f 550/3/6 549/3/6 551/3/6
f 552/1/6 553/1/6 554/1/6
f 554/1/6 553/1/6 555/1/6
f 556/1/6 557/1/6 558/1/6
f 558/1/6 557/1/6 559/1/6
f 560/1/6 561/1/6 562/1/6
f 562/1/6 561/1/6 563/1/6
f 562/3/6 563/3/6 564/3/6
f 564/3/6 563/3/6 565/3/6
f 566/1/6 567/1/6 568/1/6
f 568/1/6 567/1/6 569/1/6
f 568/3/6 569/3/6 571/3/6
f 569/3/6 570/3/6 571/3/6
f 571/3/6 570/3/6 572/3/6
f 573/3/6 574/3/6 576/3/6
f 574/3/6 575/3/6 576/3/6
f 576/3/6 575/3/6 577/3/6
f 578/3/6 579/3/6 580/3/6
f 580/3/6 579/3/6 581/3/6
f 582/1/6 583/1/6 584/1/6
f 584/1/6 583/1/6 585/1/6
f 584/2/6 585/2/6 587/2/6
f 585/3/6 586/3/6 588/3/6
f 587/2/6 585/2/6 588/2/6
f 588/3/6 586/3/6 589/3/6
f 590/1/6 591/1/6 592/1/6
f 592/1/6 591/1/6 593/1/6
f 592/3/6 593/3/6 594/3/6
f 594/3/6 593/3/6 595/3/6
f 596/1/6 597/1/6 598/1/6
f 598/1/6 597/1/6 599/1/6
f 600/3/6 601/3/6 602/3/6
f 602/3/6 601/3/6 603/3/6
f 604/1/6 605/1/6 607/1/6
f 605/3/6 606/3/6 608/3/6
f 607/1/6 605/1/6 608/1/6
f 608/3/6 606/3/6 609/3/6
