# MagicaVoxel @ Ephtracy

# group
o 

# material
mtllib BotonExit.mtl
usemtl palette

# normals
vn -1 0 0
vn 1 0 0
vn 0 0 1
vn 0 0 -1
vn 0 -1 0
vn 0 1 0

# texcoords
vt 0.0449219 0.5
vt 0.802734 0.5
vt 0.806641 0.5
vt 0.958984 0.5
vt 0.994141 0.5

# verts
v -0.6 0.4 -0.9
v -0.6 0.4 -1
v -0.6 0.6 -0.9
v -0.6 0.6 -1
v -0.6 1.4 -0.9
v -0.6 1.4 -1
v -0.6 1.6 -0.9
v -0.6 1.6 -1
v 0.7 0.4 -0.9
v 0.7 0.4 -1
v 0.7 0.6 -0.9
v 0.7 0.6 -1
v 0.7 1.4 -0.9
v 0.7 1.4 -1
v 0.7 1.6 -0.9
v 0.7 1.6 -1
v -0.6 0.4 -0.9
v -0.6 0.6 -0.9
v -0.6 1.4 -0.9
v -0.6 1.6 -0.9
v -0.5 0.5 -0.9
v -0.5 0.6 -0.9
v -0.5 1.4 -0.9
v -0.5 1.5 -0.9
v -0.4 0.4 -0.9
v -0.4 0.5 -0.9
v -0.4 0.6 -0.9
v -0.4 1.4 -0.9
v -0.4 1.5 -0.9
v -0.4 1.6 -0.9
v -0.3 0.6 -0.9
v -0.3 1.4 -0.9
v -0.2 0.7 -0.9
v -0.2 1.3 -0.9
v -0.1 0.7 -0.9
v -0.1 1.2 -0.9
v 0.1 0.9 -0.9
v 0.1 1 -0.9
v 0.2 0.7 -0.9
v 0.2 0.9 -0.9
v 0.2 1 -0.9
v 0.2 1.2 -0.9
v 0.3 0.7 -0.9
v 0.3 1.3 -0.9
v 0.4 0.6 -0.9
v 0.4 1.4 -0.9
v 0.5 0.4 -0.9
v 0.5 0.5 -0.9
v 0.5 0.6 -0.9
v 0.5 1.4 -0.9
v 0.5 1.5 -0.9
v 0.5 1.6 -0.9
v 0.6 0.5 -0.9
v 0.6 0.6 -0.9
v 0.6 1.4 -0.9
v 0.6 1.5 -0.9
v 0.7 0.4 -0.9
v 0.7 0.6 -0.9
v 0.7 1.4 -0.9
v 0.7 1.6 -0.9
v -0.6 0.4 -1
v -0.6 0.6 -1
v -0.6 1.4 -1
v -0.6 1.6 -1
v -0.5 0.5 -1
v -0.5 0.6 -1
v -0.5 1.4 -1
v -0.5 1.5 -1
v -0.4 0.4 -1
v -0.4 0.5 -1
v -0.4 0.6 -1
v -0.4 1.4 -1
v -0.4 1.5 -1
v -0.4 1.6 -1
v -0.3 0.6 -1
v -0.3 1.4 -1
v -0.2 0.7 -1
v -0.2 1.3 -1
v -0.1 0.7 -1
v -0.1 1.2 -1
v 0.1 0.9 -1
v 0.1 1 -1
v 0.2 0.7 -1
v 0.2 0.9 -1
v 0.2 1 -1
v 0.2 1.2 -1
v 0.3 0.7 -1
v 0.3 1.3 -1
v 0.4 0.6 -1
v 0.4 1.4 -1
v 0.5 0.4 -1
v 0.5 0.5 -1
v 0.5 0.6 -1
v 0.5 1.4 -1
v 0.5 1.5 -1
v 0.5 1.6 -1
v 0.6 0.5 -1
v 0.6 0.6 -1
v 0.6 1.4 -1
v 0.6 1.5 -1
v 0.7 0.4 -1
v 0.7 0.6 -1
v 0.7 1.4 -1
v 0.7 1.6 -1
v -0.6 0.4 -0.9
v -0.4 0.4 -0.9
v 0.5 0.4 -0.9
v 0.7 0.4 -0.9
v -0.6 0.4 -1
v -0.4 0.4 -1
v 0.5 0.4 -1
v 0.7 0.4 -1
v -0.6 1.6 -0.9
v -0.4 1.6 -0.9
v 0.5 1.6 -0.9
v 0.7 1.6 -0.9
v -0.6 1.6 -1
v -0.4 1.6 -1
v 0.5 1.6 -1
v 0.7 1.6 -1

# faces
f 3/1/1 2/1/1 1/1/1
f 4/1/1 2/1/1 3/1/1
f 5/3/1 4/3/1 3/3/1
f 6/3/1 4/3/1 5/3/1
f 7/1/1 6/1/1 5/1/1
f 8/1/1 6/1/1 7/1/1
f 9/1/2 10/1/2 11/1/2
f 11/1/2 10/1/2 12/1/2
f 11/3/2 12/3/2 13/3/2
f 13/3/2 12/3/2 14/3/2
f 13/1/2 14/1/2 15/1/2
f 15/1/2 14/1/2 16/1/2
f 21/1/3 18/1/3 17/1/3
f 22/3/3 19/3/3 18/3/3
f 22/1/3 18/1/3 21/1/3
f 23/1/3 20/1/3 19/1/3
f 23/3/3 19/3/3 22/3/3
f 24/1/3 20/1/3 23/1/3
f 25/1/3 21/1/3 17/1/3
f 26/3/3 22/3/3 21/3/3
f 26/1/3 21/1/3 25/1/3
f 27/2/3 23/2/3 22/2/3
f 27/3/3 22/3/3 26/3/3
f 28/3/3 24/3/3 23/3/3
f 28/2/3 23/2/3 27/2/3
f 29/1/3 20/1/3 24/1/3
f 29/3/3 24/3/3 28/3/3
f 30/1/3 20/1/3 29/1/3
f 31/2/3 28/2/3 27/2/3
f 31/2/3 27/2/3 26/2/3
f 31/2/3 29/2/3 28/2/3
f 32/2/3 29/2/3 31/2/3
f 33/4/3 32/4/3 31/4/3
f 34/4/3 32/4/3 33/4/3
f 35/4/3 33/4/3 31/4/3
f 35/5/3 34/5/3 33/5/3
f 36/5/3 34/5/3 35/5/3
f 37/4/3 36/4/3 35/4/3
f 38/4/3 36/4/3 37/4/3
f 39/4/3 35/4/3 31/4/3
f 39/4/3 37/4/3 35/4/3
f 40/5/3 38/5/3 37/5/3
f 40/4/3 37/4/3 39/4/3
f 41/4/3 36/4/3 38/4/3
f 41/5/3 38/5/3 40/5/3
f 42/5/3 34/5/3 36/5/3
f 42/4/3 36/4/3 41/4/3
f 43/5/3 40/5/3 39/5/3
f 43/5/3 41/5/3 40/5/3
f 43/5/3 42/5/3 41/5/3
f 43/4/3 39/4/3 31/4/3
f 44/4/3 32/4/3 34/4/3
f 44/5/3 42/5/3 43/5/3
f 44/5/3 34/5/3 42/5/3
f 45/2/3 31/2/3 26/2/3
f 45/4/3 43/4/3 31/4/3
f 45/4/3 44/4/3 43/4/3
f 46/4/3 32/4/3 44/4/3
f 46/4/3 44/4/3 45/4/3
f 46/2/3 29/2/3 32/2/3
f 47/3/3 26/3/3 25/3/3
f 48/2/3 45/2/3 26/2/3
f 48/3/3 26/3/3 47/3/3
f 48/2/3 46/2/3 45/2/3
f 49/2/3 46/2/3 48/2/3
f 50/2/3 29/2/3 46/2/3
f 50/2/3 46/2/3 49/2/3
f 51/3/3 30/3/3 29/3/3
f 51/2/3 29/2/3 50/2/3
f 52/3/3 30/3/3 51/3/3
f 53/3/3 49/3/3 48/3/3
f 53/1/3 48/1/3 47/1/3
f 54/2/3 50/2/3 49/2/3
f 54/3/3 49/3/3 53/3/3
f 55/3/3 51/3/3 50/3/3
f 55/2/3 50/2/3 54/2/3
f 56/1/3 52/1/3 51/1/3
f 56/3/3 51/3/3 55/3/3
f 57/1/3 53/1/3 47/1/3
f 57/1/3 54/1/3 53/1/3
f 58/3/3 55/3/3 54/3/3
f 58/1/3 54/1/3 57/1/3
f 59/1/3 56/1/3 55/1/3
f 59/3/3 55/3/3 58/3/3
f 60/1/3 52/1/3 56/1/3
f 60/1/3 56/1/3 59/1/3
f 61/1/4 62/1/4 65/1/4
f 62/3/4 63/3/4 66/3/4
f 65/1/4 62/1/4 66/1/4
f 63/1/4 64/1/4 67/1/4
f 66/3/4 63/3/4 67/3/4
f 67/1/4 64/1/4 68/1/4
f 61/1/4 65/1/4 69/1/4
f 65/3/4 66/3/4 70/3/4
f 69/1/4 65/1/4 70/1/4
f 66/2/4 67/2/4 71/2/4
f 70/3/4 66/3/4 71/3/4
f 67/3/4 68/3/4 72/3/4
f 71/2/4 67/2/4 72/2/4
f 68/1/4 64/1/4 73/1/4
f 72/3/4 68/3/4 73/3/4
f 73/1/4 64/1/4 74/1/4
f 71/2/4 72/2/4 75/2/4
f 70/2/4 71/2/4 75/2/4
f 72/2/4 73/2/4 75/2/4
f 75/2/4 73/2/4 76/2/4
f 75/4/4 76/4/4 77/4/4
f 77/4/4 76/4/4 78/4/4
f 75/4/4 77/4/4 79/4/4
f 77/5/4 78/5/4 79/5/4
f 79/5/4 78/5/4 80/5/4
f 79/4/4 80/4/4 81/4/4
f 81/4/4 80/4/4 82/4/4
f 75/4/4 79/4/4 83/4/4
f 79/4/4 81/4/4 83/4/4
f 81/5/4 82/5/4 84/5/4
f 83/4/4 81/4/4 84/4/4
f 82/4/4 80/4/4 85/4/4
f 84/5/4 82/5/4 85/5/4
f 80/5/4 78/5/4 86/5/4
f 85/4/4 80/4/4 86/4/4
f 83/5/4 84/5/4 87/5/4
f 84/5/4 85/5/4 87/5/4
f 85/5/4 86/5/4 87/5/4
f 75/4/4 83/4/4 87/4/4
f 78/4/4 76/4/4 88/4/4
f 87/5/4 86/5/4 88/5/4
f 86/5/4 78/5/4 88/5/4
f 70/2/4 75/2/4 89/2/4
f 75/4/4 87/4/4 89/4/4
f 87/4/4 88/4/4 89/4/4
f 88/4/4 76/4/4 90/4/4
f 89/4/4 88/4/4 90/4/4
f 76/2/4 73/2/4 90/2/4
f 69/3/4 70/3/4 91/3/4
f 70/2/4 89/2/4 92/2/4
f 91/3/4 70/3/4 92/3/4
f 89/2/4 90/2/4 92/2/4
f 92/2/4 90/2/4 93/2/4
f 90/2/4 73/2/4 94/2/4
f 93/2/4 90/2/4 94/2/4
f 73/3/4 74/3/4 95/3/4
f 94/2/4 73/2/4 95/2/4
f 95/3/4 74/3/4 96/3/4
f 92/3/4 93/3/4 97/3/4
f 91/1/4 92/1/4 97/1/4
f 93/2/4 94/2/4 98/2/4
f 97/3/4 93/3/4 98/3/4
f 94/3/4 95/3/4 99/3/4
f 98/2/4 94/2/4 99/2/4
f 95/1/4 96/1/4 100/1/4
f 99/3/4 95/3/4 100/3/4
f 91/1/4 97/1/4 101/1/4
f 97/1/4 98/1/4 101/1/4
f 98/3/4 99/3/4 102/3/4
f 101/1/4 98/1/4 102/1/4
f 99/1/4 100/1/4 103/1/4
f 102/3/4 99/3/4 103/3/4
f 100/1/4 96/1/4 104/1/4
f 103/1/4 100/1/4 104/1/4
f 109/1/5 106/1/5 105/1/5
f 110/3/5 107/3/5 106/3/5
f 110/1/5 106/1/5 109/1/5
f 111/1/5 108/1/5 107/1/5
f 111/3/5 107/3/5 110/3/5
f 112/1/5 108/1/5 111/1/5
f 113/1/6 114/1/6 117/1/6
f 114/3/6 115/3/6 118/3/6
f 117/1/6 114/1/6 118/1/6
f 115/1/6 116/1/6 119/1/6
f 118/3/6 115/3/6 119/3/6
f 119/1/6 116/1/6 120/1/6
