# MagicaVoxel @ Ephtracy

# group
o 

# material
mtllib tibu1.mtl
usemtl palette

# normals
vn -1 0 0
vn 1 0 0
vn 0 0 1
vn 0 0 -1
vn 0 -1 0
vn 0 1 0

# texcoords
vt 0.966797 0.5
vt 0.982422 0.5
vt 0.986328 0.5
vt 0.994141 0.5

# verts
v -0.9 0.3 0
v -0.9 0.3 -0.1
v -0.9 0.4 0
v -0.9 0.4 -0.1
v -0.9 0.9 0
v -0.9 0.9 -0.1
v -0.9 1 0
v -0.9 1 -0.1
v -0.5 0.5 0.1
v -0.5 0.5 0
v -0.5 0.5 -0.1
v -0.5 0.5 -0.2
v -0.5 0.6 0.1
v -0.5 0.6 0
v -0.5 0.6 -0.1
v -0.5 0.6 -0.2
v -0.5 0.7 0
v -0.5 0.7 -0.1
v -0.5 0.8 0.1
v -0.5 0.8 -0.2
v -0.4 0.4 0.1
v -0.4 0.4 -0.2
v -0.4 0.5 0.2
v -0.4 0.5 0.1
v -0.4 0.5 -0.2
v -0.4 0.5 -0.3
v -0.4 0.6 0.2
v -0.4 0.6 0.1
v -0.4 0.6 -0.2
v -0.4 0.6 -0.3
v -0.4 0.8 0.2
v -0.4 0.8 0.1
v -0.4 0.8 -0.2
v -0.4 0.8 -0.3
v -0.4 0.9 0.1
v -0.4 0.9 -0.2
v -0.3 0.3 0
v -0.3 0.3 -0.1
v -0.3 0.4 0
v -0.3 0.4 -0.1
v -0.3 0.6 0.3
v -0.3 0.6 0.2
v -0.3 0.6 -0.3
v -0.3 0.6 -0.4
v -0.3 0.7 0.3
v -0.3 0.7 0.2
v -0.3 0.7 -0.3
v -0.3 0.7 -0.4
v -0.3 0.9 0
v -0.3 0.9 -0.1
v -0.3 1 0
v -0.3 1 -0.1
v -0.2 0.3 0.7
v -0.2 0.3 0.6
v -0.2 0.3 -0.7
v -0.2 0.3 -0.8
v -0.2 0.4 0.7
v -0.2 0.4 0.6
v -0.2 0.4 0.5
v -0.2 0.4 -0.6
v -0.2 0.4 -0.7
v -0.2 0.4 -0.8
v -0.2 0.5 0.6
v -0.2 0.5 0.5
v -0.2 0.5 -0.6
v -0.2 0.5 -0.7
v -0.1 0.5 0.5
v -0.1 0.5 0.4
v -0.1 0.5 -0.5
v -0.1 0.5 -0.6
v -0.1 0.6 0.5
v -0.1 0.6 0.4
v -0.1 0.6 -0.5
v -0.1 0.6 -0.6
v -0.1 1 0
v -0.1 1 -0.1
v -0.1 1.1 0
v -0.1 1.1 -0.1
v 0 0.6 0.4
v 0 0.6 0.3
v 0 0.6 -0.4
v 0 0.6 -0.5
v 0 0.7 0.4
v 0 0.7 0.3
v 0 0.7 -0.4
v 0 0.7 -0.5
v 0 1.1 0
v 0 1.1 -0.1
v 0 1.4 0
v 0 1.4 -0.1
v -0.8 0.3 0
v -0.8 0.3 -0.1
v -0.8 0.4 0
v -0.8 0.4 -0.1
v -0.8 0.9 0
v -0.8 0.9 -0.1
v -0.8 1 0
v -0.8 1 -0.1
v -0.7 0.4 0
v -0.7 0.4 -0.1
v -0.7 0.5 0
v -0.7 0.5 -0.1
v -0.7 0.8 0
v -0.7 0.8 -0.1
v -0.7 0.9 0
v -0.7 0.9 -0.1
v -0.6 0.7 0
v -0.6 0.7 -0.1
v -0.6 0.8 0
v -0.6 0.8 -0.1
v -0.1 0.3 0.7
v -0.1 0.3 0.6
v -0.1 0.3 -0.7
v -0.1 0.3 -0.8
v -0.1 0.4 0.7
v -0.1 0.4 0.6
v -0.1 0.4 -0.7
v -0.1 0.4 -0.8
v 0 0.4 0.6
v 0 0.4 0.5
v 0 0.4 -0.6
v 0 0.4 -0.7
v 0 0.5 0.6
v 0 0.5 0.5
v 0 0.5 -0.6
v 0 0.5 -0.7
v 0.1 0.5 0.5
v 0.1 0.5 0.4
v 0.1 0.5 -0.5
v 0.1 0.5 -0.6
v 0.1 0.6 0.5
v 0.1 0.6 0.4
v 0.1 0.6 -0.5
v 0.1 0.6 -0.6
v 0.1 1.3 0
v 0.1 1.3 -0.1
v 0.1 1.4 0
v 0.1 1.4 -0.1
v 0.2 0.6 0.4
v 0.2 0.6 0.3
v 0.2 0.6 -0.4
v 0.2 0.6 -0.5
v 0.2 0.7 0.4
v 0.2 0.7 0.3
v 0.2 0.7 -0.4
v 0.2 0.7 -0.5
v 0.2 1.2 0
v 0.2 1.2 -0.1
v 0.2 1.3 0
v 0.2 1.3 -0.1
v 0.3 1.1 0
v 0.3 1.1 -0.1
v 0.3 1.2 0
v 0.3 1.2 -0.1
v 0.4 1 0
v 0.4 1 -0.1
v 0.4 1.1 0
v 0.4 1.1 -0.1
v 0.6 0.3 0
v 0.6 0.3 -0.1
v 0.6 0.4 0
v 0.6 0.4 -0.1
v 0.6 0.6 0.3
v 0.6 0.6 0.2
v 0.6 0.6 -0.3
v 0.6 0.6 -0.4
v 0.6 0.7 0.3
v 0.6 0.7 0.2
v 0.6 0.7 -0.3
v 0.6 0.7 -0.4
v 0.6 0.9 0
v 0.6 0.9 -0.1
v 0.6 1 0
v 0.6 1 -0.1
v 0.7 0.4 0.1
v 0.7 0.4 -0.2
v 0.7 0.5 0.2
v 0.7 0.5 0.1
v 0.7 0.5 -0.2
v 0.7 0.5 -0.3
v 0.7 0.6 0.2
v 0.7 0.6 0.1
v 0.7 0.6 -0.2
v 0.7 0.6 -0.3
v 0.7 0.8 0.2
v 0.7 0.8 0.1
v 0.7 0.8 -0.2
v 0.7 0.8 -0.3
v 0.9 0.5 0.1
v 0.9 0.5 -0.2
v 0.9 0.6 0.1
v 0.9 0.6 -0.2
v 0.9 0.8 0.1
v 0.9 0.8 -0.2
v 0.9 0.9 0.1
v 0.9 0.9 -0.2
v 1 0.6 0.1
v 1 0.6 -0.2
v 1 0.8 0.1
v 1 0.8 -0.2
v -0.2 0.3 0.7
v -0.2 0.4 0.7
v -0.1 0.3 0.7
v -0.1 0.4 0.7
v -0.2 0.4 0.6
v -0.2 0.5 0.6
v -0.1 0.4 0.6
v 0 0.4 0.6
v 0 0.5 0.6
v -0.1 0.5 0.5
v -0.1 0.6 0.5
v 0 0.5 0.5
v 0.1 0.5 0.5
v 0.1 0.6 0.5
v 0 0.6 0.4
v 0 0.7 0.4
v 0.1 0.6 0.4
v 0.2 0.6 0.4
v 0.2 0.7 0.4
v -0.3 0.6 0.3
v -0.3 0.7 0.3
v 0 0.6 0.3
v 0 0.7 0.3
v 0.2 0.6 0.3
v 0.2 0.7 0.3
v 0.6 0.6 0.3
v 0.6 0.7 0.3
v -0.4 0.5 0.2
v -0.4 0.6 0.2
v -0.4 0.8 0.2
v -0.3 0.6 0.2
v -0.3 0.7 0.2
v 0.6 0.6 0.2
v 0.6 0.7 0.2
v 0.7 0.5 0.2
v 0.7 0.6 0.2
v 0.7 0.8 0.2
v -0.5 0.5 0.1
v -0.5 0.6 0.1
v -0.5 0.8 0.1
v -0.4 0.4 0.1
v -0.4 0.5 0.1
v -0.4 0.6 0.1
v -0.4 0.8 0.1
v -0.4 0.9 0.1
v 0.7 0.4 0.1
v 0.7 0.5 0.1
v 0.7 0.6 0.1
v 0.7 0.8 0.1
v 0.8 0.7 0.1
v 0.8 0.8 0.1
v 0.9 0.5 0.1
v 0.9 0.6 0.1
v 0.9 0.7 0.1
v 0.9 0.8 0.1
v 0.9 0.9 0.1
v 1 0.6 0.1
v 1 0.8 0.1
v -0.9 0.3 0
v -0.9 0.4 0
v -0.9 0.9 0
v -0.9 1 0
v -0.8 0.3 0
v -0.8 0.4 0
v -0.8 0.5 0
v -0.8 0.8 0
v -0.8 0.9 0
v -0.8 1 0
v -0.7 0.4 0
v -0.7 0.5 0
v -0.7 0.6 0
v -0.7 0.7 0
v -0.7 0.8 0
v -0.7 0.9 0
v -0.6 0.5 0
v -0.6 0.6 0
v -0.6 0.7 0
v -0.6 0.8 0
v -0.5 0.5 0
v -0.5 0.6 0
v -0.5 0.7 0
v -0.3 0.3 0
v -0.3 0.4 0
v -0.3 0.9 0
v -0.3 1 0
v -0.1 1 0
v -0.1 1.1 0
v 0 1.1 0
v 0 1.4 0
v 0.1 1.3 0
v 0.1 1.4 0
v 0.2 1.2 0
v 0.2 1.3 0
v 0.3 1.1 0
v 0.3 1.2 0
v 0.4 1 0
v 0.4 1.1 0
v 0.6 0.3 0
v 0.6 0.4 0
v 0.6 0.9 0
v 0.6 1 0
v -0.1 0.5 -0.5
v -0.1 0.6 -0.5
v 0 0.6 -0.5
v 0.1 0.5 -0.5
v 0.1 0.6 -0.5
v -0.2 0.4 -0.6
v -0.2 0.5 -0.6
v -0.1 0.5 -0.6
v 0 0.4 -0.6
v 0 0.5 -0.6
v -0.2 0.3 -0.7
v -0.2 0.4 -0.7
v -0.1 0.3 -0.7
v -0.1 0.4 -0.7
v -0.2 0.3 0.6
v -0.2 0.4 0.6
v -0.1 0.3 0.6
v -0.1 0.4 0.6
v -0.2 0.4 0.5
v -0.2 0.5 0.5
v -0.1 0.5 0.5
v 0 0.4 0.5
v 0 0.5 0.5
v -0.1 0.5 0.4
v -0.1 0.6 0.4
v 0 0.6 0.4
v 0.1 0.5 0.4
v 0.1 0.6 0.4
v -0.9 0.3 -0.1
v -0.9 0.4 -0.1
v -0.9 0.9 -0.1
v -0.9 1 -0.1
v -0.8 0.3 -0.1
v -0.8 0.4 -0.1
v -0.8 0.5 -0.1
v -0.8 0.8 -0.1
v -0.8 0.9 -0.1
v -0.8 1 -0.1
v -0.7 0.4 -0.1
v -0.7 0.5 -0.1
v -0.7 0.6 -0.1
v -0.7 0.7 -0.1
v -0.7 0.8 -0.1
v -0.7 0.9 -0.1
v -0.6 0.5 -0.1
v -0.6 0.6 -0.1
v -0.6 0.7 -0.1
v -0.6 0.8 -0.1
v -0.5 0.5 -0.1
v -0.5 0.6 -0.1
v -0.5 0.7 -0.1
v -0.3 0.3 -0.1
v -0.3 0.4 -0.1
v -0.3 0.9 -0.1
v -0.3 1 -0.1
v -0.1 1 -0.1
v -0.1 1.1 -0.1
v 0 1.1 -0.1
v 0 1.4 -0.1
v 0.1 1.3 -0.1
v 0.1 1.4 -0.1
v 0.2 1.2 -0.1
v 0.2 1.3 -0.1
v 0.3 1.1 -0.1
v 0.3 1.2 -0.1
v 0.4 1 -0.1
v 0.4 1.1 -0.1
v 0.6 0.3 -0.1
v 0.6 0.4 -0.1
v 0.6 0.9 -0.1
v 0.6 1 -0.1
v -0.5 0.5 -0.2
v -0.5 0.6 -0.2
v -0.5 0.8 -0.2
v -0.4 0.4 -0.2
v -0.4 0.5 -0.2
v -0.4 0.6 -0.2
v -0.4 0.8 -0.2
v -0.4 0.9 -0.2
v 0.7 0.4 -0.2
v 0.7 0.5 -0.2
v 0.7 0.6 -0.2
v 0.7 0.8 -0.2
v 0.8 0.7 -0.2
v 0.8 0.8 -0.2
v 0.9 0.5 -0.2
v 0.9 0.6 -0.2
v 0.9 0.7 -0.2
v 0.9 0.8 -0.2
v 0.9 0.9 -0.2
v 1 0.6 -0.2
v 1 0.8 -0.2
v -0.4 0.5 -0.3
v -0.4 0.6 -0.3
v -0.4 0.8 -0.3
v -0.3 0.6 -0.3
v -0.3 0.7 -0.3
v 0.6 0.6 -0.3
v 0.6 0.7 -0.3
v 0.7 0.5 -0.3
v 0.7 0.6 -0.3
v 0.7 0.8 -0.3
v -0.3 0.6 -0.4
v -0.3 0.7 -0.4
v 0 0.6 -0.4
v 0 0.7 -0.4
v 0.2 0.6 -0.4
v 0.2 0.7 -0.4
v 0.6 0.6 -0.4
v 0.6 0.7 -0.4
v 0 0.6 -0.5
v 0 0.7 -0.5
v 0.1 0.6 -0.5
v 0.2 0.6 -0.5
v 0.2 0.7 -0.5
v -0.1 0.5 -0.6
v -0.1 0.6 -0.6
v 0 0.5 -0.6
v 0.1 0.5 -0.6
v 0.1 0.6 -0.6
v -0.2 0.4 -0.7
v -0.2 0.5 -0.7
v -0.1 0.4 -0.7
v 0 0.4 -0.7
v 0 0.5 -0.7
v -0.2 0.3 -0.8
v -0.2 0.4 -0.8
v -0.1 0.3 -0.8
v -0.1 0.4 -0.8
v -0.2 0.3 0.7
v -0.1 0.3 0.7
v -0.2 0.3 0.6
v -0.1 0.3 0.6
v -0.9 0.3 0
v -0.8 0.3 0
v -0.3 0.3 0
v 0.6 0.3 0
v -0.9 0.3 -0.1
v -0.8 0.3 -0.1
v -0.3 0.3 -0.1
v 0.6 0.3 -0.1
v -0.2 0.3 -0.7
v -0.1 0.3 -0.7
v -0.2 0.3 -0.8
v -0.1 0.3 -0.8
v -0.2 0.4 0.6
v -0.1 0.4 0.6
v 0 0.4 0.6
v -0.2 0.4 0.5
v 0 0.4 0.5
v -0.4 0.4 0.1
v 0.7 0.4 0.1
v -0.8 0.4 0
v -0.7 0.4 0
v -0.3 0.4 0
v 0.6 0.4 0
v -0.8 0.4 -0.1
v -0.7 0.4 -0.1
v -0.3 0.4 -0.1
v 0.6 0.4 -0.1
v -0.4 0.4 -0.2
v 0.7 0.4 -0.2
v -0.2 0.4 -0.6
v 0 0.4 -0.6
v -0.2 0.4 -0.7
v -0.1 0.4 -0.7
v 0 0.4 -0.7
v -0.1 0.5 0.5
v 0 0.5 0.5
v 0.1 0.5 0.5
v -0.1 0.5 0.4
v 0.1 0.5 0.4
v -0.4 0.5 0.2
v 0.7 0.5 0.2
v -0.5 0.5 0.1
v -0.4 0.5 0.1
v 0.7 0.5 0.1
v 0.9 0.5 0.1
v -0.7 0.5 0
v -0.6 0.5 0
v -0.5 0.5 0
v -0.7 0.5 -0.1
v -0.6 0.5 -0.1
v -0.5 0.5 -0.1
v -0.5 0.5 -0.2
v -0.4 0.5 -0.2
v 0.7 0.5 -0.2
v 0.9 0.5 -0.2
v -0.4 0.5 -0.3
v 0.7 0.5 -0.3
v -0.1 0.5 -0.5
v 0.1 0.5 -0.5
v -0.1 0.5 -0.6
v 0 0.5 -0.6
v 0.1 0.5 -0.6
v 0 0.6 0.4
v 0.1 0.6 0.4
v 0.2 0.6 0.4
v -0.3 0.6 0.3
v 0 0.6 0.3
v 0.2 0.6 0.3
v 0.6 0.6 0.3
v -0.3 0.6 0.2
v 0.6 0.6 0.2
v 0.9 0.6 0.1
v 1 0.6 0.1
v 0.9 0.6 -0.2
v 1 0.6 -0.2
v -0.3 0.6 -0.3
v 0.6 0.6 -0.3
v -0.3 0.6 -0.4
v 0 0.6 -0.4
v 0.2 0.6 -0.4
v 0.6 0.6 -0.4
v 0 0.6 -0.5
v 0.1 0.6 -0.5
v 0.2 0.6 -0.5
v -0.2 0.4 0.7
v -0.1 0.4 0.7
v -0.2 0.4 0.6
v -0.1 0.4 0.6
v -0.2 0.4 -0.7
v -0.1 0.4 -0.7
v -0.2 0.4 -0.8
v -0.1 0.4 -0.8
v -0.2 0.5 0.6
v 0 0.5 0.6
v -0.2 0.5 0.5
v -0.1 0.5 0.5
v 0 0.5 0.5
v -0.2 0.5 -0.6
v -0.1 0.5 -0.6
v 0 0.5 -0.6
v -0.2 0.5 -0.7
v 0 0.5 -0.7
v -0.1 0.6 0.5
v 0.1 0.6 0.5
v -0.1 0.6 0.4
v 0 0.6 0.4
v 0.1 0.6 0.4
v -0.1 0.6 -0.5
v 0 0.6 -0.5
v 0.1 0.6 -0.5
v -0.1 0.6 -0.6
v 0.1 0.6 -0.6
v 0 0.7 0.4
v 0.2 0.7 0.4
v -0.3 0.7 0.3
v 0 0.7 0.3
v 0.2 0.7 0.3
v 0.6 0.7 0.3
v -0.3 0.7 0.2
v 0.6 0.7 0.2
v -0.6 0.7 0
v -0.5 0.7 0
v -0.6 0.7 -0.1
v -0.5 0.7 -0.1
v -0.3 0.7 -0.3
v 0.6 0.7 -0.3
v -0.3 0.7 -0.4
v 0 0.7 -0.4
v 0.2 0.7 -0.4
v 0.6 0.7 -0.4
v 0 0.7 -0.5
v 0.2 0.7 -0.5
v -0.4 0.8 0.2
v 0.7 0.8 0.2
v -0.5 0.8 0.1
v -0.4 0.8 0.1
v 0.7 0.8 0.1
v 0.9 0.8 0.1
v 1 0.8 0.1
v -0.7 0.8 0
v -0.6 0.8 0
v -0.7 0.8 -0.1
v -0.6 0.8 -0.1
v -0.5 0.8 -0.2
v -0.4 0.8 -0.2
v 0.7 0.8 -0.2
v 0.9 0.8 -0.2
v 1 0.8 -0.2
v -0.4 0.8 -0.3
v 0.7 0.8 -0.3
v -0.4 0.9 0.1
v 0.9 0.9 0.1
v -0.8 0.9 0
v -0.7 0.9 0
v -0.3 0.9 0
v 0.6 0.9 0
v -0.8 0.9 -0.1
v -0.7 0.9 -0.1
v -0.3 0.9 -0.1
v 0.6 0.9 -0.1
v -0.4 0.9 -0.2
v 0.9 0.9 -0.2
v -0.9 1 0
v -0.8 1 0
v -0.3 1 0
v -0.1 1 0
v 0.4 1 0
v 0.6 1 0
v -0.9 1 -0.1
v -0.8 1 -0.1
v -0.3 1 -0.1
v -0.1 1 -0.1
v 0.4 1 -0.1
v 0.6 1 -0.1
v -0.1 1.1 0
v 0 1.1 0
v 0.3 1.1 0
v 0.4 1.1 0
v -0.1 1.1 -0.1
v 0 1.1 -0.1
v 0.3 1.1 -0.1
v 0.4 1.1 -0.1
v 0.2 1.2 0
v 0.3 1.2 0
v 0.2 1.2 -0.1
v 0.3 1.2 -0.1
v 0.1 1.3 0
v 0.2 1.3 0
v 0.1 1.3 -0.1
v 0.2 1.3 -0.1
v 0 1.4 0
v 0.1 1.4 0
v 0 1.4 -0.1
v 0.1 1.4 -0.1

# faces
f 3/3/1 2/3/1 1/3/1
f 4/3/1 2/3/1 3/3/1
f 5/2/1 4/2/1 3/2/1
f 6/2/1 4/2/1 5/2/1
f 7/3/1 6/3/1 5/3/1
f 8/3/1 6/3/1 7/3/1
f 13/1/1 10/1/1 9/1/1
f 14/1/1 10/1/1 13/1/1
f 15/1/1 12/1/1 11/1/1
f 16/1/1 12/1/1 15/1/1
f 17/2/1 14/2/1 13/2/1
f 18/2/1 16/2/1 15/2/1
f 19/2/1 17/2/1 13/2/1
f 19/2/1 18/2/1 17/2/1
f 20/2/1 16/2/1 18/2/1
f 20/2/1 18/2/1 19/2/1
f 24/1/1 22/1/1 21/1/1
f 25/1/1 22/1/1 24/1/1
f 27/1/1 24/1/1 23/1/1
f 28/1/1 24/1/1 27/1/1
f 29/1/1 26/1/1 25/1/1
f 30/1/1 26/1/1 29/1/1
f 31/2/1 28/2/1 27/2/1
f 32/2/1 28/2/1 31/2/1
f 33/2/1 30/2/1 29/2/1
f 34/2/1 30/2/1 33/2/1
f 35/2/1 33/2/1 32/2/1
f 36/2/1 33/2/1 35/2/1
f 39/1/1 38/1/1 37/1/1
f 40/1/1 38/1/1 39/1/1
f 45/2/1 42/2/1 41/2/1
f 46/2/1 42/2/1 45/2/1
f 47/2/1 44/2/1 43/2/1
f 48/2/1 44/2/1 47/2/1
f 51/2/1 50/2/1 49/2/1
f 52/2/1 50/2/1 51/2/1
f 57/2/1 54/2/1 53/2/1
f 58/2/1 54/2/1 57/2/1
f 61/2/1 56/2/1 55/2/1
f 62/2/1 56/2/1 61/2/1
f 63/2/1 59/2/1 58/2/1
f 64/2/1 59/2/1 63/2/1
f 65/2/1 61/2/1 60/2/1
f 66/2/1 61/2/1 65/2/1
f 71/2/1 68/2/1 67/2/1
f 72/2/1 68/2/1 71/2/1
f 73/2/1 70/2/1 69/2/1
f 74/2/1 70/2/1 73/2/1
f 77/2/1 76/2/1 75/2/1
f 78/2/1 76/2/1 77/2/1
f 83/2/1 80/2/1 79/2/1
f 84/2/1 80/2/1 83/2/1
f 85/2/1 82/2/1 81/2/1
f 86/2/1 82/2/1 85/2/1
f 89/2/1 88/2/1 87/2/1
f 90/2/1 88/2/1 89/2/1
f 91/3/2 92/3/2 93/3/2
f 93/3/2 92/3/2 94/3/2
f 95/3/2 96/3/2 97/3/2
f 97/3/2 96/3/2 98/3/2
f 99/3/2 100/3/2 101/3/2
f 101/3/2 100/3/2 102/3/2
f 103/3/2 104/3/2 105/3/2
f 105/3/2 104/3/2 106/3/2
f 107/3/2 108/3/2 109/3/2
f 109/3/2 108/3/2 110/3/2
f 111/2/2 112/2/2 115/2/2
f 115/2/2 112/2/2 116/2/2
f 113/2/2 114/2/2 117/2/2
f 117/2/2 114/2/2 118/2/2
f 119/2/2 120/2/2 123/2/2
f 123/2/2 120/2/2 124/2/2
f 121/2/2 122/2/2 125/2/2
f 125/2/2 122/2/2 126/2/2
f 127/2/2 128/2/2 131/2/2
f 131/2/2 128/2/2 132/2/2
f 129/2/2 130/2/2 133/2/2
f 133/2/2 130/2/2 134/2/2
f 135/2/2 136/2/2 137/2/2
f 137/2/2 136/2/2 138/2/2
f 139/2/2 140/2/2 143/2/2
f 143/2/2 140/2/2 144/2/2
f 141/2/2 142/2/2 145/2/2
f 145/2/2 142/2/2 146/2/2
f 147/2/2 148/2/2 149/2/2
f 149/2/2 148/2/2 150/2/2
f 151/2/2 152/2/2 153/2/2
f 153/2/2 152/2/2 154/2/2
f 155/2/2 156/2/2 157/2/2
f 157/2/2 156/2/2 158/2/2
f 159/1/2 160/1/2 161/1/2
f 161/1/2 160/1/2 162/1/2
f 163/2/2 164/2/2 167/2/2
f 167/2/2 164/2/2 168/2/2
f 165/2/2 166/2/2 169/2/2
f 169/2/2 166/2/2 170/2/2
f 171/2/2 172/2/2 173/2/2
f 173/2/2 172/2/2 174/2/2
f 175/1/2 176/1/2 178/1/2
f 178/1/2 176/1/2 179/1/2
f 177/1/2 178/1/2 181/1/2
f 181/1/2 178/1/2 182/1/2
f 179/1/2 180/1/2 183/1/2
f 183/1/2 180/1/2 184/1/2
f 181/2/2 182/2/2 185/2/2
f 185/2/2 182/2/2 186/2/2
f 183/2/2 184/2/2 187/2/2
f 187/2/2 184/2/2 188/2/2
f 189/1/2 190/1/2 191/1/2
f 191/1/2 190/1/2 192/1/2
f 193/2/2 194/2/2 195/2/2
f 195/2/2 194/2/2 196/2/2
f 197/2/2 198/2/2 199/2/2
f 199/2/2 198/2/2 200/2/2
f 203/2/3 202/2/3 201/2/3
f 204/2/3 202/2/3 203/2/3
f 207/2/3 206/2/3 205/2/3
f 208/2/3 206/2/3 207/2/3
f 209/2/3 206/2/3 208/2/3
f 212/2/3 211/2/3 210/2/3
f 213/2/3 211/2/3 212/2/3
f 214/2/3 211/2/3 213/2/3
f 217/2/3 216/2/3 215/2/3
f 218/2/3 216/2/3 217/2/3
f 219/2/3 216/2/3 218/2/3
f 222/2/3 221/2/3 220/2/3
f 223/2/3 221/2/3 222/2/3
f 226/2/3 225/2/3 224/2/3
f 227/2/3 225/2/3 226/2/3
f 231/1/3 229/1/3 228/1/3
f 231/2/3 230/2/3 229/2/3
f 232/2/3 230/2/3 231/2/3
f 233/1/3 231/1/3 228/1/3
f 234/2/3 230/2/3 232/2/3
f 235/1/3 233/1/3 228/1/3
f 236/2/3 234/2/3 233/2/3
f 236/1/3 233/1/3 235/1/3
f 237/2/3 230/2/3 234/2/3
f 237/2/3 234/2/3 236/2/3
f 242/1/3 239/1/3 238/1/3
f 243/2/3 240/2/3 239/2/3
f 243/1/3 239/1/3 242/1/3
f 244/2/3 240/2/3 243/2/3
f 246/1/3 242/1/3 241/1/3
f 247/1/3 242/1/3 246/1/3
f 249/2/3 245/2/3 244/2/3
f 250/2/3 249/2/3 248/2/3
f 251/2/3 245/2/3 249/2/3
f 251/2/3 249/2/3 250/2/3
f 252/1/3 248/1/3 247/1/3
f 253/2/3 250/2/3 248/2/3
f 253/1/3 248/1/3 252/1/3
f 254/4/3 251/4/3 250/4/3
f 254/2/3 250/2/3 253/2/3
f 255/2/3 245/2/3 251/2/3
f 255/4/3 251/4/3 254/4/3
f 256/2/3 245/2/3 255/2/3
f 257/2/3 254/2/3 253/2/3
f 257/2/3 255/2/3 254/2/3
f 258/2/3 255/2/3 257/2/3
f 263/3/3 260/3/3 259/3/3
f 264/2/3 261/2/3 260/2/3
f 264/3/3 260/3/3 263/3/3
f 265/2/3 261/2/3 264/2/3
f 266/2/3 261/2/3 265/2/3
f 267/3/3 262/3/3 261/3/3
f 267/2/3 261/2/3 266/2/3
f 268/3/3 262/3/3 267/3/3
f 269/3/3 265/3/3 264/3/3
f 270/2/3 266/2/3 265/2/3
f 270/3/3 265/3/3 269/3/3
f 271/2/3 266/2/3 270/2/3
f 272/2/3 266/2/3 271/2/3
f 273/3/3 267/3/3 266/3/3
f 273/2/3 266/2/3 272/2/3
f 274/3/3 267/3/3 273/3/3
f 275/3/3 271/3/3 270/3/3
f 276/2/3 272/2/3 271/2/3
f 276/3/3 271/3/3 275/3/3
f 277/3/3 273/3/3 272/3/3
f 277/2/3 272/2/3 276/2/3
f 278/3/3 273/3/3 277/3/3
f 279/1/3 276/1/3 275/1/3
f 280/2/3 277/2/3 276/2/3
f 280/1/3 276/1/3 279/1/3
f 281/2/3 277/2/3 280/2/3
f 286/2/3 285/2/3 284/2/3
f 288/2/3 287/2/3 286/2/3
f 290/2/3 289/2/3 288/2/3
f 291/2/3 289/2/3 290/2/3
f 292/2/3 290/2/3 288/2/3
f 293/2/3 290/2/3 292/2/3
f 294/2/3 288/2/3 286/2/3
f 294/2/3 292/2/3 288/2/3
f 295/2/3 292/2/3 294/2/3
f 296/2/3 286/2/3 284/2/3
f 296/2/3 294/2/3 286/2/3
f 297/2/3 294/2/3 296/2/3
f 298/1/3 283/1/3 282/1/3
f 299/1/3 283/1/3 298/1/3
f 300/2/3 296/2/3 284/2/3
f 301/2/3 296/2/3 300/2/3
f 304/2/3 303/2/3 302/2/3
f 305/2/3 304/2/3 302/2/3
f 306/2/3 304/2/3 305/2/3
f 309/2/3 308/2/3 307/2/3
f 310/2/3 309/2/3 307/2/3
f 311/2/3 309/2/3 310/2/3
f 314/2/3 313/2/3 312/2/3
f 315/2/3 313/2/3 314/2/3
f 316/2/4 317/2/4 318/2/4
f 318/2/4 317/2/4 319/2/4
f 320/2/4 321/2/4 322/2/4
f 320/2/4 322/2/4 323/2/4
f 323/2/4 322/2/4 324/2/4
f 325/2/4 326/2/4 327/2/4
f 325/2/4 327/2/4 328/2/4
f 328/2/4 327/2/4 329/2/4
f 330/3/4 331/3/4 334/3/4
f 331/2/4 332/2/4 335/2/4
f 334/3/4 331/3/4 335/3/4
f 335/2/4 332/2/4 336/2/4
f 336/2/4 332/2/4 337/2/4
f 332/3/4 333/3/4 338/3/4
f 337/2/4 332/2/4 338/2/4
f 338/3/4 333/3/4 339/3/4
f 335/3/4 336/3/4 340/3/4
f 336/2/4 337/2/4 341/2/4
f 340/3/4 336/3/4 341/3/4
f 341/2/4 337/2/4 342/2/4
f 342/2/4 337/2/4 343/2/4
f 337/3/4 338/3/4 344/3/4
f 343/2/4 337/2/4 344/2/4
f 344/3/4 338/3/4 345/3/4
f 341/3/4 342/3/4 346/3/4
f 342/2/4 343/2/4 347/2/4
f 346/3/4 342/3/4 347/3/4
f 343/3/4 344/3/4 348/3/4
f 347/2/4 343/2/4 348/2/4
f 348/3/4 344/3/4 349/3/4
f 346/1/4 347/1/4 350/1/4
f 347/2/4 348/2/4 351/2/4
f 350/1/4 347/1/4 351/1/4
f 351/2/4 348/2/4 352/2/4
f 355/2/4 356/2/4 357/2/4
f 357/2/4 358/2/4 359/2/4
f 359/2/4 360/2/4 361/2/4
f 361/2/4 360/2/4 362/2/4
f 359/2/4 361/2/4 363/2/4
f 363/2/4 361/2/4 364/2/4
f 357/2/4 359/2/4 365/2/4
f 359/2/4 363/2/4 365/2/4
f 365/2/4 363/2/4 366/2/4
f 355/2/4 357/2/4 367/2/4
f 357/2/4 365/2/4 367/2/4
f 367/2/4 365/2/4 368/2/4
f 353/1/4 354/1/4 369/1/4
f 369/1/4 354/1/4 370/1/4
f 355/2/4 367/2/4 371/2/4
f 371/2/4 367/2/4 372/2/4
f 373/1/4 374/1/4 377/1/4
f 374/2/4 375/2/4 378/2/4
f 377/1/4 374/1/4 378/1/4
f 378/2/4 375/2/4 379/2/4
f 376/1/4 377/1/4 381/1/4
f 381/1/4 377/1/4 382/1/4
f 379/2/4 380/2/4 384/2/4
f 383/2/4 384/2/4 385/2/4
f 384/2/4 380/2/4 386/2/4
f 385/2/4 384/2/4 386/2/4
f 382/1/4 383/1/4 387/1/4
f 383/2/4 385/2/4 388/2/4
f 387/1/4 383/1/4 388/1/4
f 385/4/4 386/4/4 389/4/4
f 388/2/4 385/2/4 389/2/4
f 386/2/4 380/2/4 390/2/4
f 389/4/4 386/4/4 390/4/4
f 390/2/4 380/2/4 391/2/4
f 388/2/4 389/2/4 392/2/4
f 389/2/4 390/2/4 392/2/4
f 392/2/4 390/2/4 393/2/4
f 394/1/4 395/1/4 397/1/4
f 395/2/4 396/2/4 397/2/4
f 397/2/4 396/2/4 398/2/4
f 394/1/4 397/1/4 399/1/4
f 398/2/4 396/2/4 400/2/4
f 394/1/4 399/1/4 401/1/4
f 399/2/4 400/2/4 402/2/4
f 401/1/4 399/1/4 402/1/4
f 400/2/4 396/2/4 403/2/4
f 402/2/4 400/2/4 403/2/4
f 404/2/4 405/2/4 406/2/4
f 406/2/4 405/2/4 407/2/4
f 408/2/4 409/2/4 410/2/4
f 410/2/4 409/2/4 411/2/4
f 412/2/4 413/2/4 414/2/4
f 414/2/4 413/2/4 415/2/4
f 415/2/4 413/2/4 416/2/4
f 417/2/4 418/2/4 419/2/4
f 419/2/4 418/2/4 420/2/4
f 420/2/4 418/2/4 421/2/4
f 422/2/4 423/2/4 424/2/4
f 424/2/4 423/2/4 425/2/4
f 425/2/4 423/2/4 426/2/4
f 427/2/4 428/2/4 429/2/4
f 429/2/4 428/2/4 430/2/4
f 433/2/5 432/2/5 431/2/5
f 434/2/5 432/2/5 433/2/5
f 439/3/5 436/3/5 435/3/5
f 440/3/5 436/3/5 439/3/5
f 441/1/5 438/1/5 437/1/5
f 442/1/5 438/1/5 441/1/5
f 445/2/5 444/2/5 443/2/5
f 446/2/5 444/2/5 445/2/5
f 450/2/5 448/2/5 447/2/5
f 450/2/5 449/2/5 448/2/5
f 451/2/5 449/2/5 450/2/5
f 456/1/5 453/1/5 452/1/5
f 457/1/5 453/1/5 456/1/5
f 458/3/5 455/3/5 454/3/5
f 459/3/5 455/3/5 458/3/5
f 460/1/5 456/1/5 452/1/5
f 461/1/5 453/1/5 457/1/5
f 462/1/5 460/1/5 452/1/5
f 462/1/5 461/1/5 460/1/5
f 463/1/5 453/1/5 461/1/5
f 463/1/5 461/1/5 462/1/5
f 466/2/5 465/2/5 464/2/5
f 467/2/5 465/2/5 466/2/5
f 468/2/5 465/2/5 467/2/5
f 472/2/5 470/2/5 469/2/5
f 472/2/5 471/2/5 470/2/5
f 473/2/5 471/2/5 472/2/5
f 477/1/5 475/1/5 474/1/5
f 478/1/5 475/1/5 477/1/5
f 482/1/5 477/1/5 476/1/5
f 483/3/5 481/3/5 480/3/5
f 484/1/5 482/1/5 481/1/5
f 484/3/5 481/3/5 483/3/5
f 485/1/5 477/1/5 482/1/5
f 485/1/5 482/1/5 484/1/5
f 486/1/5 477/1/5 485/1/5
f 487/1/5 477/1/5 486/1/5
f 488/1/5 479/1/5 478/1/5
f 489/1/5 479/1/5 488/1/5
f 490/1/5 488/1/5 487/1/5
f 491/1/5 488/1/5 490/1/5
f 494/2/5 493/2/5 492/2/5
f 495/2/5 493/2/5 494/2/5
f 496/2/5 493/2/5 495/2/5
f 501/2/5 498/2/5 497/2/5
f 501/2/5 499/2/5 498/2/5
f 502/2/5 499/2/5 501/2/5
f 504/2/5 501/2/5 500/2/5
f 504/2/5 503/2/5 502/2/5
f 504/2/5 502/2/5 501/2/5
f 505/2/5 503/2/5 504/2/5
f 508/2/5 507/2/5 506/2/5
f 509/2/5 507/2/5 508/2/5
f 512/2/5 511/2/5 510/2/5
f 513/2/5 511/2/5 512/2/5
f 514/2/5 511/2/5 513/2/5
f 515/2/5 511/2/5 514/2/5
f 516/2/5 514/2/5 513/2/5
f 517/2/5 514/2/5 516/2/5
f 518/2/5 514/2/5 517/2/5
f 519/2/6 520/2/6 521/2/6
f 521/2/6 520/2/6 522/2/6
f 523/2/6 524/2/6 525/2/6
f 525/2/6 524/2/6 526/2/6
f 527/2/6 528/2/6 529/2/6
f 529/2/6 528/2/6 530/2/6
f 530/2/6 528/2/6 531/2/6
f 532/2/6 533/2/6 535/2/6
f 533/2/6 534/2/6 535/2/6
f 535/2/6 534/2/6 536/2/6
f 537/2/6 538/2/6 539/2/6
f 539/2/6 538/2/6 540/2/6
f 540/2/6 538/2/6 541/2/6
f 542/2/6 543/2/6 545/2/6
f 543/2/6 544/2/6 545/2/6
f 545/2/6 544/2/6 546/2/6
f 547/2/6 548/2/6 550/2/6
f 550/2/6 548/2/6 551/2/6
f 549/2/6 550/2/6 553/2/6
f 551/2/6 552/2/6 553/2/6
f 550/2/6 551/2/6 553/2/6
f 553/2/6 552/2/6 554/2/6
f 555/2/6 556/2/6 557/2/6
f 557/2/6 556/2/6 558/2/6
f 559/2/6 560/2/6 561/2/6
f 561/2/6 560/2/6 562/2/6
f 562/2/6 560/2/6 563/2/6
f 563/2/6 560/2/6 564/2/6
f 562/2/6 563/2/6 565/2/6
f 565/2/6 563/2/6 566/2/6
f 567/2/6 568/2/6 570/2/6
f 570/2/6 568/2/6 571/2/6
f 574/3/6 575/3/6 576/3/6
f 576/3/6 575/3/6 577/3/6
f 569/2/6 570/2/6 578/2/6
f 578/2/6 570/2/6 579/2/6
f 572/2/6 573/2/6 581/2/6
f 581/2/6 573/2/6 582/2/6
f 579/2/6 580/2/6 583/2/6
f 583/2/6 580/2/6 584/2/6
f 585/2/6 586/2/6 589/2/6
f 589/2/6 586/2/6 590/2/6
f 587/3/6 588/3/6 591/3/6
f 591/3/6 588/3/6 592/3/6
f 585/2/6 589/2/6 593/2/6
f 590/2/6 586/2/6 594/2/6
f 585/2/6 593/2/6 595/2/6
f 593/2/6 594/2/6 595/2/6
f 594/2/6 586/2/6 596/2/6
f 595/2/6 594/2/6 596/2/6
f 597/3/6 598/3/6 603/3/6
f 603/3/6 598/3/6 604/3/6
f 599/2/6 600/2/6 605/2/6
f 605/2/6 600/2/6 606/2/6
f 601/2/6 602/2/6 607/2/6
f 607/2/6 602/2/6 608/2/6
f 609/2/6 610/2/6 613/2/6
f 613/2/6 610/2/6 614/2/6
f 611/2/6 612/2/6 615/2/6
f 615/2/6 612/2/6 616/2/6
f 617/2/6 618/2/6 619/2/6
f 619/2/6 618/2/6 620/2/6
f 621/2/6 622/2/6 623/2/6
f 623/2/6 622/2/6 624/2/6
f 625/2/6 626/2/6 627/2/6
f 627/2/6 626/2/6 628/2/6
