# MagicaVoxel @ Ephtracy

# group
o 

# material
mtllib tibu5vox.mtl
usemtl palette

# normals
vn -1 0 0
vn 1 0 0
vn 0 0 1
vn 0 0 -1
vn 0 -1 0
vn 0 1 0

# texcoords
vt 0.966797 0.5
vt 0.982422 0.5
vt 0.986328 0.5
vt 0.994141 0.5

# verts
v -0.9 0.3 0.1
v -0.9 0.3 0
v -0.9 0.4 0.1
v -0.9 0.4 0
v -0.9 0.9 0.1
v -0.9 0.9 0
v -0.9 1 0.1
v -0.9 1 0
v -0.6 0.5 0
v -0.6 0.5 -0.1
v -0.6 0.6 0
v -0.6 0.6 -0.1
v -0.6 0.7 0
v -0.6 0.7 -0.1
v -0.5 0.5 -0.1
v -0.5 0.5 -0.2
v -0.5 0.6 -0.1
v -0.5 0.6 -0.2
v -0.5 0.7 0
v -0.5 0.7 -0.1
v -0.5 0.8 0
v -0.5 0.8 -0.2
v -0.4 0.4 0.1
v -0.4 0.4 -0.2
v -0.4 0.5 0.2
v -0.4 0.5 0.1
v -0.4 0.5 0
v -0.4 0.5 -0.2
v -0.4 0.5 -0.3
v -0.4 0.6 0.2
v -0.4 0.6 0
v -0.4 0.6 -0.2
v -0.4 0.6 -0.3
v -0.4 0.8 0.2
v -0.4 0.8 0.1
v -0.4 0.8 0
v -0.4 0.8 -0.2
v -0.4 0.8 -0.3
v -0.4 0.9 0.1
v -0.4 0.9 -0.2
v -0.3 0.3 0
v -0.3 0.3 -0.1
v -0.3 0.4 0
v -0.3 0.4 -0.1
v -0.3 0.6 0.3
v -0.3 0.6 0.2
v -0.3 0.6 -0.3
v -0.3 0.6 -0.4
v -0.3 0.7 0.3
v -0.3 0.7 0.2
v -0.3 0.7 -0.3
v -0.3 0.7 -0.4
v -0.3 0.9 0
v -0.3 0.9 -0.1
v -0.3 1 0
v -0.3 1 -0.1
v -0.2 0.3 0.7
v -0.2 0.3 0.6
v -0.2 0.3 -0.7
v -0.2 0.3 -0.8
v -0.2 0.4 0.7
v -0.2 0.4 0.6
v -0.2 0.4 0.5
v -0.2 0.4 -0.6
v -0.2 0.4 -0.7
v -0.2 0.4 -0.8
v -0.2 0.5 0.6
v -0.2 0.5 0.5
v -0.2 0.5 -0.6
v -0.2 0.5 -0.7
v -0.1 0.5 0.5
v -0.1 0.5 0.4
v -0.1 0.5 -0.5
v -0.1 0.5 -0.6
v -0.1 0.6 0.5
v -0.1 0.6 0.4
v -0.1 0.6 -0.5
v -0.1 0.6 -0.6
v -0.1 1 0
v -0.1 1 -0.1
v -0.1 1.1 0
v -0.1 1.1 -0.1
v 0 0.6 0.4
v 0 0.6 0.3
v 0 0.6 -0.4
v 0 0.6 -0.5
v 0 0.7 0.4
v 0 0.7 0.3
v 0 0.7 -0.4
v 0 0.7 -0.5
v 0 1.1 0
v 0 1.1 -0.1
v 0 1.4 0
v 0 1.4 -0.1
v -0.8 0.3 0.1
v -0.8 0.3 0
v -0.8 0.4 0.1
v -0.8 0.4 0
v -0.8 0.9 0.1
v -0.8 0.9 0
v -0.8 1 0.1
v -0.8 1 0
v -0.7 0.4 0.1
v -0.7 0.4 0
v -0.7 0.5 0.1
v -0.7 0.5 0
v -0.7 0.8 0.1
v -0.7 0.8 0
v -0.7 0.9 0.1
v -0.7 0.9 0
v -0.6 0.5 0.1
v -0.6 0.5 0
v -0.6 0.6 0.1
v -0.6 0.6 0
v -0.6 0.7 0.1
v -0.6 0.7 0
v -0.6 0.8 0.1
v -0.6 0.8 0
v -0.1 0.3 0.7
v -0.1 0.3 0.6
v -0.1 0.3 -0.7
v -0.1 0.3 -0.8
v -0.1 0.4 0.7
v -0.1 0.4 0.6
v -0.1 0.4 -0.7
v -0.1 0.4 -0.8
v 0 0.4 0.6
v 0 0.4 0.5
v 0 0.4 -0.6
v 0 0.4 -0.7
v 0 0.5 0.6
v 0 0.5 0.5
v 0 0.5 -0.6
v 0 0.5 -0.7
v 0.1 0.5 0.5
v 0.1 0.5 0.4
v 0.1 0.5 -0.5
v 0.1 0.5 -0.6
v 0.1 0.6 0.5
v 0.1 0.6 0.4
v 0.1 0.6 -0.5
v 0.1 0.6 -0.6
v 0.1 1.3 0
v 0.1 1.3 -0.1
v 0.1 1.4 0
v 0.1 1.4 -0.1
v 0.2 0.6 0.4
v 0.2 0.6 0.3
v 0.2 0.6 -0.4
v 0.2 0.6 -0.5
v 0.2 0.7 0.4
v 0.2 0.7 0.3
v 0.2 0.7 -0.4
v 0.2 0.7 -0.5
v 0.2 1.2 0
v 0.2 1.2 -0.1
v 0.2 1.3 0
v 0.2 1.3 -0.1
v 0.3 1.1 0
v 0.3 1.1 -0.1
v 0.3 1.2 0
v 0.3 1.2 -0.1
v 0.4 1 0
v 0.4 1 -0.1
v 0.4 1.1 0
v 0.4 1.1 -0.1
v 0.6 0.3 0
v 0.6 0.3 -0.1
v 0.6 0.4 0
v 0.6 0.4 -0.1
v 0.6 0.6 0.3
v 0.6 0.6 0.2
v 0.6 0.6 -0.3
v 0.6 0.6 -0.4
v 0.6 0.7 0.3
v 0.6 0.7 0.2
v 0.6 0.7 -0.3
v 0.6 0.7 -0.4
v 0.6 0.9 0
v 0.6 0.9 -0.1
v 0.6 1 0
v 0.6 1 -0.1
v 0.7 0.4 0.1
v 0.7 0.4 -0.2
v 0.7 0.5 0.2
v 0.7 0.5 0.1
v 0.7 0.5 -0.2
v 0.7 0.5 -0.3
v 0.7 0.6 0.2
v 0.7 0.6 0.1
v 0.7 0.6 -0.2
v 0.7 0.6 -0.3
v 0.7 0.8 0.2
v 0.7 0.8 0.1
v 0.7 0.8 -0.2
v 0.7 0.8 -0.3
v 0.9 0.5 0.1
v 0.9 0.5 -0.2
v 0.9 0.6 0.1
v 0.9 0.6 -0.2
v 0.9 0.8 0.1
v 0.9 0.8 -0.2
v 0.9 0.9 0.1
v 0.9 0.9 -0.2
v 1 0.6 0.1
v 1 0.6 -0.2
v 1 0.8 0.1
v 1 0.8 -0.2
v -0.2 0.3 0.7
v -0.2 0.4 0.7
v -0.1 0.3 0.7
v -0.1 0.4 0.7
v -0.2 0.4 0.6
v -0.2 0.5 0.6
v -0.1 0.4 0.6
v 0 0.4 0.6
v 0 0.5 0.6
v -0.1 0.5 0.5
v -0.1 0.6 0.5
v 0 0.5 0.5
v 0.1 0.5 0.5
v 0.1 0.6 0.5
v 0 0.6 0.4
v 0 0.7 0.4
v 0.1 0.6 0.4
v 0.2 0.6 0.4
v 0.2 0.7 0.4
v -0.3 0.6 0.3
v -0.3 0.7 0.3
v 0 0.6 0.3
v 0 0.7 0.3
v 0.2 0.6 0.3
v 0.2 0.7 0.3
v 0.6 0.6 0.3
v 0.6 0.7 0.3
v -0.4 0.5 0.2
v -0.4 0.6 0.2
v -0.4 0.8 0.2
v -0.3 0.6 0.2
v -0.3 0.7 0.2
v 0.6 0.6 0.2
v 0.6 0.7 0.2
v 0.7 0.5 0.2
v 0.7 0.6 0.2
v 0.7 0.8 0.2
v -0.9 0.3 0.1
v -0.9 0.4 0.1
v -0.9 0.9 0.1
v -0.9 1 0.1
v -0.8 0.3 0.1
v -0.8 0.4 0.1
v -0.8 0.5 0.1
v -0.8 0.8 0.1
v -0.8 0.9 0.1
v -0.8 1 0.1
v -0.7 0.4 0.1
v -0.7 0.5 0.1
v -0.7 0.6 0.1
v -0.7 0.7 0.1
v -0.7 0.8 0.1
v -0.7 0.9 0.1
v -0.6 0.5 0.1
v -0.6 0.6 0.1
v -0.6 0.7 0.1
v -0.6 0.8 0.1
v -0.4 0.4 0.1
v -0.4 0.5 0.1
v -0.4 0.8 0.1
v -0.4 0.9 0.1
v 0.7 0.4 0.1
v 0.7 0.5 0.1
v 0.7 0.6 0.1
v 0.7 0.8 0.1
v 0.8 0.7 0.1
v 0.8 0.8 0.1
v 0.9 0.5 0.1
v 0.9 0.6 0.1
v 0.9 0.7 0.1
v 0.9 0.8 0.1
v 0.9 0.9 0.1
v 1 0.6 0.1
v 1 0.8 0.1
v -0.6 0.5 0
v -0.6 0.6 0
v -0.6 0.7 0
v -0.5 0.7 0
v -0.5 0.8 0
v -0.4 0.5 0
v -0.4 0.6 0
v -0.4 0.8 0
v -0.3 0.3 0
v -0.3 0.4 0
v -0.3 0.9 0
v -0.3 1 0
v -0.1 1 0
v -0.1 1.1 0
v 0 1.1 0
v 0 1.4 0
v 0.1 1.3 0
v 0.1 1.4 0
v 0.2 1.2 0
v 0.2 1.3 0
v 0.3 1.1 0
v 0.3 1.2 0
v 0.4 1 0
v 0.4 1.1 0
v 0.6 0.3 0
v 0.6 0.4 0
v 0.6 0.9 0
v 0.6 1 0
v -0.1 0.5 -0.5
v -0.1 0.6 -0.5
v 0 0.6 -0.5
v 0.1 0.5 -0.5
v 0.1 0.6 -0.5
v -0.2 0.4 -0.6
v -0.2 0.5 -0.6
v -0.1 0.5 -0.6
v 0 0.4 -0.6
v 0 0.5 -0.6
v -0.2 0.3 -0.7
v -0.2 0.4 -0.7
v -0.1 0.3 -0.7
v -0.1 0.4 -0.7
v -0.2 0.3 0.6
v -0.2 0.4 0.6
v -0.1 0.3 0.6
v -0.1 0.4 0.6
v -0.2 0.4 0.5
v -0.2 0.5 0.5
v -0.1 0.5 0.5
v 0 0.4 0.5
v 0 0.5 0.5
v -0.1 0.5 0.4
v -0.1 0.6 0.4
v 0 0.6 0.4
v 0.1 0.5 0.4
v 0.1 0.6 0.4
v -0.9 0.3 0
v -0.9 0.4 0
v -0.9 0.9 0
v -0.9 1 0
v -0.8 0.3 0
v -0.8 0.4 0
v -0.8 0.5 0
v -0.8 0.8 0
v -0.8 0.9 0
v -0.8 1 0
v -0.7 0.4 0
v -0.7 0.5 0
v -0.7 0.6 0
v -0.7 0.7 0
v -0.7 0.8 0
v -0.7 0.9 0
v -0.6 0.5 0
v -0.6 0.6 0
v -0.6 0.7 0
v -0.6 0.8 0
v -0.6 0.5 -0.1
v -0.6 0.6 -0.1
v -0.6 0.7 -0.1
v -0.5 0.5 -0.1
v -0.5 0.6 -0.1
v -0.5 0.7 -0.1
v -0.3 0.3 -0.1
v -0.3 0.4 -0.1
v -0.3 0.9 -0.1
v -0.3 1 -0.1
v -0.1 1 -0.1
v -0.1 1.1 -0.1
v 0 1.1 -0.1
v 0 1.4 -0.1
v 0.1 1.3 -0.1
v 0.1 1.4 -0.1
v 0.2 1.2 -0.1
v 0.2 1.3 -0.1
v 0.3 1.1 -0.1
v 0.3 1.2 -0.1
v 0.4 1 -0.1
v 0.4 1.1 -0.1
v 0.6 0.3 -0.1
v 0.6 0.4 -0.1
v 0.6 0.9 -0.1
v 0.6 1 -0.1
v -0.5 0.5 -0.2
v -0.5 0.6 -0.2
v -0.5 0.8 -0.2
v -0.4 0.4 -0.2
v -0.4 0.5 -0.2
v -0.4 0.6 -0.2
v -0.4 0.8 -0.2
v -0.4 0.9 -0.2
v 0.7 0.4 -0.2
v 0.7 0.5 -0.2
v 0.7 0.6 -0.2
v 0.7 0.8 -0.2
v 0.8 0.7 -0.2
v 0.8 0.8 -0.2
v 0.9 0.5 -0.2
v 0.9 0.6 -0.2
v 0.9 0.7 -0.2
v 0.9 0.8 -0.2
v 0.9 0.9 -0.2
v 1 0.6 -0.2
v 1 0.8 -0.2
v -0.4 0.5 -0.3
v -0.4 0.6 -0.3
v -0.4 0.8 -0.3
v -0.3 0.6 -0.3
v -0.3 0.7 -0.3
v 0.6 0.6 -0.3
v 0.6 0.7 -0.3
v 0.7 0.5 -0.3
v 0.7 0.6 -0.3
v 0.7 0.8 -0.3
v -0.3 0.6 -0.4
v -0.3 0.7 -0.4
v 0 0.6 -0.4
v 0 0.7 -0.4
v 0.2 0.6 -0.4
v 0.2 0.7 -0.4
v 0.6 0.6 -0.4
v 0.6 0.7 -0.4
v 0 0.6 -0.5
v 0 0.7 -0.5
v 0.1 0.6 -0.5
v 0.2 0.6 -0.5
v 0.2 0.7 -0.5
v -0.1 0.5 -0.6
v -0.1 0.6 -0.6
v 0 0.5 -0.6
v 0.1 0.5 -0.6
v 0.1 0.6 -0.6
v -0.2 0.4 -0.7
v -0.2 0.5 -0.7
v -0.1 0.4 -0.7
v 0 0.4 -0.7
v 0 0.5 -0.7
v -0.2 0.3 -0.8
v -0.2 0.4 -0.8
v -0.1 0.3 -0.8
v -0.1 0.4 -0.8
v -0.2 0.3 0.7
v -0.1 0.3 0.7
v -0.2 0.3 0.6
v -0.1 0.3 0.6
v -0.9 0.3 0.1
v -0.8 0.3 0.1
v -0.9 0.3 0
v -0.8 0.3 0
v -0.3 0.3 0
v 0.6 0.3 0
v -0.3 0.3 -0.1
v 0.6 0.3 -0.1
v -0.2 0.3 -0.7
v -0.1 0.3 -0.7
v -0.2 0.3 -0.8
v -0.1 0.3 -0.8
v -0.2 0.4 0.6
v -0.1 0.4 0.6
v 0 0.4 0.6
v -0.2 0.4 0.5
v 0 0.4 0.5
v -0.8 0.4 0.1
v -0.7 0.4 0.1
v -0.4 0.4 0.1
v 0.7 0.4 0.1
v -0.8 0.4 0
v -0.7 0.4 0
v -0.3 0.4 0
v 0.6 0.4 0
v -0.3 0.4 -0.1
v 0.6 0.4 -0.1
v -0.4 0.4 -0.2
v 0.7 0.4 -0.2
v -0.2 0.4 -0.6
v 0 0.4 -0.6
v -0.2 0.4 -0.7
v -0.1 0.4 -0.7
v 0 0.4 -0.7
v -0.1 0.5 0.5
v 0 0.5 0.5
v 0.1 0.5 0.5
v -0.1 0.5 0.4
v 0.1 0.5 0.4
v -0.4 0.5 0.2
v 0.7 0.5 0.2
v -0.7 0.5 0.1
v -0.6 0.5 0.1
v -0.4 0.5 0.1
v 0.7 0.5 0.1
v 0.9 0.5 0.1
v -0.7 0.5 0
v -0.6 0.5 0
v -0.4 0.5 0
v -0.6 0.5 -0.1
v -0.5 0.5 -0.1
v -0.5 0.5 -0.2
v -0.4 0.5 -0.2
v 0.7 0.5 -0.2
v 0.9 0.5 -0.2
v -0.4 0.5 -0.3
v 0.7 0.5 -0.3
v -0.1 0.5 -0.5
v 0.1 0.5 -0.5
v -0.1 0.5 -0.6
v 0 0.5 -0.6
v 0.1 0.5 -0.6
v 0 0.6 0.4
v 0.1 0.6 0.4
v 0.2 0.6 0.4
v -0.3 0.6 0.3
v 0 0.6 0.3
v 0.2 0.6 0.3
v 0.6 0.6 0.3
v -0.3 0.6 0.2
v 0.6 0.6 0.2
v 0.9 0.6 0.1
v 1 0.6 0.1
v 0.9 0.6 -0.2
v 1 0.6 -0.2
v -0.3 0.6 -0.3
v 0.6 0.6 -0.3
v -0.3 0.6 -0.4
v 0 0.6 -0.4
v 0.2 0.6 -0.4
v 0.6 0.6 -0.4
v 0 0.6 -0.5
v 0.1 0.6 -0.5
v 0.2 0.6 -0.5
v -0.2 0.4 0.7
v -0.1 0.4 0.7
v -0.2 0.4 0.6
v -0.1 0.4 0.6
v -0.2 0.4 -0.7
v -0.1 0.4 -0.7
v -0.2 0.4 -0.8
v -0.1 0.4 -0.8
v -0.2 0.5 0.6
v 0 0.5 0.6
v -0.2 0.5 0.5
v -0.1 0.5 0.5
v 0 0.5 0.5
v -0.2 0.5 -0.6
v -0.1 0.5 -0.6
v 0 0.5 -0.6
v -0.2 0.5 -0.7
v 0 0.5 -0.7
v -0.1 0.6 0.5
v 0.1 0.6 0.5
v -0.1 0.6 0.4
v 0 0.6 0.4
v 0.1 0.6 0.4
v -0.1 0.6 -0.5
v 0 0.6 -0.5
v 0.1 0.6 -0.5
v -0.1 0.6 -0.6
v 0.1 0.6 -0.6
v 0 0.7 0.4
v 0.2 0.7 0.4
v -0.3 0.7 0.3
v 0 0.7 0.3
v 0.2 0.7 0.3
v 0.6 0.7 0.3
v -0.3 0.7 0.2
v 0.6 0.7 0.2
v -0.6 0.7 0
v -0.5 0.7 0
v -0.6 0.7 -0.1
v -0.5 0.7 -0.1
v -0.3 0.7 -0.3
v 0.6 0.7 -0.3
v -0.3 0.7 -0.4
v 0 0.7 -0.4
v 0.2 0.7 -0.4
v 0.6 0.7 -0.4
v 0 0.7 -0.5
v 0.2 0.7 -0.5
v -0.4 0.8 0.2
v 0.7 0.8 0.2
v -0.7 0.8 0.1
v -0.6 0.8 0.1
v -0.4 0.8 0.1
v 0.7 0.8 0.1
v 0.9 0.8 0.1
v 1 0.8 0.1
v -0.7 0.8 0
v -0.6 0.8 0
v -0.5 0.8 0
v -0.4 0.8 0
v -0.5 0.8 -0.2
v -0.4 0.8 -0.2
v 0.7 0.8 -0.2
v 0.9 0.8 -0.2
v 1 0.8 -0.2
v -0.4 0.8 -0.3
v 0.7 0.8 -0.3
v -0.8 0.9 0.1
v -0.7 0.9 0.1
v -0.4 0.9 0.1
v 0.9 0.9 0.1
v -0.8 0.9 0
v -0.7 0.9 0
v -0.3 0.9 0
v 0.6 0.9 0
v -0.3 0.9 -0.1
v 0.6 0.9 -0.1
v -0.4 0.9 -0.2
v 0.9 0.9 -0.2
v -0.9 1 0.1
v -0.8 1 0.1
v -0.9 1 0
v -0.8 1 0
v -0.3 1 0
v -0.1 1 0
v 0.4 1 0
v 0.6 1 0
v -0.3 1 -0.1
v -0.1 1 -0.1
v 0.4 1 -0.1
v 0.6 1 -0.1
v -0.1 1.1 0
v 0 1.1 0
v 0.3 1.1 0
v 0.4 1.1 0
v -0.1 1.1 -0.1
v 0 1.1 -0.1
v 0.3 1.1 -0.1
v 0.4 1.1 -0.1
v 0.2 1.2 0
v 0.3 1.2 0
v 0.2 1.2 -0.1
v 0.3 1.2 -0.1
v 0.1 1.3 0
v 0.2 1.3 0
v 0.1 1.3 -0.1
v 0.2 1.3 -0.1
v 0 1.4 0
v 0.1 1.4 0
v 0 1.4 -0.1
v 0.1 1.4 -0.1

# faces
f 3/3/1 2/3/1 1/3/1
f 4/3/1 2/3/1 3/3/1
f 5/2/1 4/2/1 3/2/1
f 6/2/1 4/2/1 5/2/1
f 7/3/1 6/3/1 5/3/1
f 8/3/1 6/3/1 7/3/1
f 11/1/1 10/1/1 9/1/1
f 12/1/1 10/1/1 11/1/1
f 13/2/1 12/2/1 11/2/1
f 14/2/1 12/2/1 13/2/1
f 17/1/1 16/1/1 15/1/1
f 18/1/1 16/1/1 17/1/1
f 20/2/1 18/2/1 17/2/1
f 21/2/1 20/2/1 19/2/1
f 22/2/1 18/2/1 20/2/1
f 22/2/1 20/2/1 21/2/1
f 26/1/1 24/1/1 23/1/1
f 27/1/1 24/1/1 26/1/1
f 28/1/1 24/1/1 27/1/1
f 30/1/1 26/1/1 25/1/1
f 30/1/1 27/1/1 26/1/1
f 31/1/1 27/1/1 30/1/1
f 32/1/1 29/1/1 28/1/1
f 33/1/1 29/1/1 32/1/1
f 34/2/1 31/2/1 30/2/1
f 35/2/1 31/2/1 34/2/1
f 36/2/1 31/2/1 35/2/1
f 37/2/1 33/2/1 32/2/1
f 38/2/1 33/2/1 37/2/1
f 39/2/1 36/2/1 35/2/1
f 39/2/1 37/2/1 36/2/1
f 40/2/1 37/2/1 39/2/1
f 43/1/1 42/1/1 41/1/1
f 44/1/1 42/1/1 43/1/1
f 49/2/1 46/2/1 45/2/1
f 50/2/1 46/2/1 49/2/1
f 51/2/1 48/2/1 47/2/1
f 52/2/1 48/2/1 51/2/1
f 55/2/1 54/2/1 53/2/1
f 56/2/1 54/2/1 55/2/1
f 61/2/1 58/2/1 57/2/1
f 62/2/1 58/2/1 61/2/1
f 65/2/1 60/2/1 59/2/1
f 66/2/1 60/2/1 65/2/1
f 67/2/1 63/2/1 62/2/1
f 68/2/1 63/2/1 67/2/1
f 69/2/1 65/2/1 64/2/1
f 70/2/1 65/2/1 69/2/1
f 75/2/1 72/2/1 71/2/1
f 76/2/1 72/2/1 75/2/1
f 77/2/1 74/2/1 73/2/1
f 78/2/1 74/2/1 77/2/1
f 81/2/1 80/2/1 79/2/1
f 82/2/1 80/2/1 81/2/1
f 87/2/1 84/2/1 83/2/1
f 88/2/1 84/2/1 87/2/1
f 89/2/1 86/2/1 85/2/1
f 90/2/1 86/2/1 89/2/1
f 93/2/1 92/2/1 91/2/1
f 94/2/1 92/2/1 93/2/1
f 95/3/2 96/3/2 97/3/2
f 97/3/2 96/3/2 98/3/2
f 99/3/2 100/3/2 101/3/2
f 101/3/2 100/3/2 102/3/2
f 103/3/2 104/3/2 105/3/2
f 105/3/2 104/3/2 106/3/2
f 107/3/2 108/3/2 109/3/2
f 109/3/2 108/3/2 110/3/2
f 111/3/2 112/3/2 113/3/2
f 113/3/2 112/3/2 114/3/2
f 113/2/2 114/2/2 115/2/2
f 115/2/2 114/2/2 116/2/2
f 115/3/2 116/3/2 117/3/2
f 117/3/2 116/3/2 118/3/2
f 119/2/2 120/2/2 123/2/2
f 123/2/2 120/2/2 124/2/2
f 121/2/2 122/2/2 125/2/2
f 125/2/2 122/2/2 126/2/2
f 127/2/2 128/2/2 131/2/2
f 131/2/2 128/2/2 132/2/2
f 129/2/2 130/2/2 133/2/2
f 133/2/2 130/2/2 134/2/2
f 135/2/2 136/2/2 139/2/2
f 139/2/2 136/2/2 140/2/2
f 137/2/2 138/2/2 141/2/2
f 141/2/2 138/2/2 142/2/2
f 143/2/2 144/2/2 145/2/2
f 145/2/2 144/2/2 146/2/2
f 147/2/2 148/2/2 151/2/2
f 151/2/2 148/2/2 152/2/2
f 149/2/2 150/2/2 153/2/2
f 153/2/2 150/2/2 154/2/2
f 155/2/2 156/2/2 157/2/2
f 157/2/2 156/2/2 158/2/2
f 159/2/2 160/2/2 161/2/2
f 161/2/2 160/2/2 162/2/2
f 163/2/2 164/2/2 165/2/2
f 165/2/2 164/2/2 166/2/2
f 167/1/2 168/1/2 169/1/2
f 169/1/2 168/1/2 170/1/2
f 171/2/2 172/2/2 175/2/2
f 175/2/2 172/2/2 176/2/2
f 173/2/2 174/2/2 177/2/2
f 177/2/2 174/2/2 178/2/2
f 179/2/2 180/2/2 181/2/2
f 181/2/2 180/2/2 182/2/2
f 183/1/2 184/1/2 186/1/2
f 186/1/2 184/1/2 187/1/2
f 185/1/2 186/1/2 189/1/2
f 189/1/2 186/1/2 190/1/2
f 187/1/2 188/1/2 191/1/2
f 191/1/2 188/1/2 192/1/2
f 189/2/2 190/2/2 193/2/2
f 193/2/2 190/2/2 194/2/2
f 191/2/2 192/2/2 195/2/2
f 195/2/2 192/2/2 196/2/2
f 197/1/2 198/1/2 199/1/2
f 199/1/2 198/1/2 200/1/2
f 201/2/2 202/2/2 203/2/2
f 203/2/2 202/2/2 204/2/2
f 205/2/2 206/2/2 207/2/2
f 207/2/2 206/2/2 208/2/2
f 211/2/3 210/2/3 209/2/3
f 212/2/3 210/2/3 211/2/3
f 215/2/3 214/2/3 213/2/3
f 216/2/3 214/2/3 215/2/3
f 217/2/3 214/2/3 216/2/3
f 220/2/3 219/2/3 218/2/3
f 221/2/3 219/2/3 220/2/3
f 222/2/3 219/2/3 221/2/3
f 225/2/3 224/2/3 223/2/3
f 226/2/3 224/2/3 225/2/3
f 227/2/3 224/2/3 226/2/3
f 230/2/3 229/2/3 228/2/3
f 231/2/3 229/2/3 230/2/3
f 234/2/3 233/2/3 232/2/3
f 235/2/3 233/2/3 234/2/3
f 239/1/3 237/1/3 236/1/3
f 239/2/3 238/2/3 237/2/3
f 240/2/3 238/2/3 239/2/3
f 241/1/3 239/1/3 236/1/3
f 242/2/3 238/2/3 240/2/3
f 243/1/3 241/1/3 236/1/3
f 244/2/3 242/2/3 241/2/3
f 244/1/3 241/1/3 243/1/3
f 245/2/3 238/2/3 242/2/3
f 245/2/3 242/2/3 244/2/3
f 250/3/3 247/3/3 246/3/3
f 251/2/3 248/2/3 247/2/3
f 251/3/3 247/3/3 250/3/3
f 252/2/3 248/2/3 251/2/3
f 253/2/3 248/2/3 252/2/3
f 254/3/3 249/3/3 248/3/3
f 254/2/3 248/2/3 253/2/3
f 255/3/3 249/3/3 254/3/3
f 256/3/3 252/3/3 251/3/3
f 257/2/3 253/2/3 252/2/3
f 257/3/3 252/3/3 256/3/3
f 258/2/3 253/2/3 257/2/3
f 259/2/3 253/2/3 258/2/3
f 260/3/3 254/3/3 253/3/3
f 260/2/3 253/2/3 259/2/3
f 261/3/3 254/3/3 260/3/3
f 262/3/3 258/3/3 257/3/3
f 263/2/3 259/2/3 258/2/3
f 263/3/3 258/3/3 262/3/3
f 264/3/3 260/3/3 259/3/3
f 264/2/3 259/2/3 263/2/3
f 265/3/3 260/3/3 264/3/3
f 270/1/3 267/1/3 266/1/3
f 271/1/3 267/1/3 270/1/3
f 273/2/3 269/2/3 268/2/3
f 274/2/3 273/2/3 272/2/3
f 275/2/3 269/2/3 273/2/3
f 275/2/3 273/2/3 274/2/3
f 276/1/3 272/1/3 271/1/3
f 277/2/3 274/2/3 272/2/3
f 277/1/3 272/1/3 276/1/3
f 278/4/3 275/4/3 274/4/3
f 278/2/3 274/2/3 277/2/3
f 279/2/3 269/2/3 275/2/3
f 279/4/3 275/4/3 278/4/3
f 280/2/3 269/2/3 279/2/3
f 281/2/3 278/2/3 277/2/3
f 281/2/3 279/2/3 278/2/3
f 282/2/3 279/2/3 281/2/3
f 286/2/3 285/2/3 284/2/3
f 288/1/3 284/1/3 283/1/3
f 289/2/3 287/2/3 286/2/3
f 289/1/3 284/1/3 288/1/3
f 289/2/3 286/2/3 284/2/3
f 290/2/3 287/2/3 289/2/3
f 295/2/3 294/2/3 293/2/3
f 297/2/3 296/2/3 295/2/3
f 299/2/3 298/2/3 297/2/3
f 300/2/3 298/2/3 299/2/3
f 301/2/3 299/2/3 297/2/3
f 302/2/3 299/2/3 301/2/3
f 303/2/3 297/2/3 295/2/3
f 303/2/3 301/2/3 297/2/3
f 304/2/3 301/2/3 303/2/3
f 305/2/3 295/2/3 293/2/3
f 305/2/3 303/2/3 295/2/3
f 306/2/3 303/2/3 305/2/3
f 307/1/3 292/1/3 291/1/3
f 308/1/3 292/1/3 307/1/3
f 309/2/3 305/2/3 293/2/3
f 310/2/3 305/2/3 309/2/3
f 313/2/3 312/2/3 311/2/3
f 314/2/3 313/2/3 311/2/3
f 315/2/3 313/2/3 314/2/3
f 318/2/3 317/2/3 316/2/3
f 319/2/3 318/2/3 316/2/3
f 320/2/3 318/2/3 319/2/3
f 323/2/3 322/2/3 321/2/3
f 324/2/3 322/2/3 323/2/3
f 325/2/4 326/2/4 327/2/4
f 327/2/4 326/2/4 328/2/4
f 329/2/4 330/2/4 331/2/4
f 329/2/4 331/2/4 332/2/4
f 332/2/4 331/2/4 333/2/4
f 334/2/4 335/2/4 336/2/4
f 334/2/4 336/2/4 337/2/4
f 337/2/4 336/2/4 338/2/4
f 339/3/4 340/3/4 343/3/4
f 340/2/4 341/2/4 344/2/4
f 343/3/4 340/3/4 344/3/4
f 344/2/4 341/2/4 345/2/4
f 345/2/4 341/2/4 346/2/4
f 341/3/4 342/3/4 347/3/4
f 346/2/4 341/2/4 347/2/4
f 347/3/4 342/3/4 348/3/4
f 344/3/4 345/3/4 349/3/4
f 345/2/4 346/2/4 350/2/4
f 349/3/4 345/3/4 350/3/4
f 350/2/4 346/2/4 351/2/4
f 351/2/4 346/2/4 352/2/4
f 346/3/4 347/3/4 353/3/4
f 352/2/4 346/2/4 353/2/4
f 353/3/4 347/3/4 354/3/4
f 350/3/4 351/3/4 355/3/4
f 351/2/4 352/2/4 356/2/4
f 355/3/4 351/3/4 356/3/4
f 352/3/4 353/3/4 357/3/4
f 356/2/4 352/2/4 357/2/4
f 357/3/4 353/3/4 358/3/4
f 359/1/4 360/1/4 362/1/4
f 360/2/4 361/2/4 363/2/4
f 362/1/4 360/1/4 363/1/4
f 363/2/4 361/2/4 364/2/4
f 367/2/4 368/2/4 369/2/4
f 369/2/4 370/2/4 371/2/4
f 371/2/4 372/2/4 373/2/4
f 373/2/4 372/2/4 374/2/4
f 371/2/4 373/2/4 375/2/4
f 375/2/4 373/2/4 376/2/4
f 369/2/4 371/2/4 377/2/4
f 371/2/4 375/2/4 377/2/4
f 377/2/4 375/2/4 378/2/4
f 367/2/4 369/2/4 379/2/4
f 369/2/4 377/2/4 379/2/4
f 379/2/4 377/2/4 380/2/4
f 365/1/4 366/1/4 381/1/4
f 381/1/4 366/1/4 382/1/4
f 367/2/4 379/2/4 383/2/4
f 383/2/4 379/2/4 384/2/4
f 385/1/4 386/1/4 389/1/4
f 386/2/4 387/2/4 390/2/4
f 389/1/4 386/1/4 390/1/4
f 390/2/4 387/2/4 391/2/4
f 388/1/4 389/1/4 393/1/4
f 393/1/4 389/1/4 394/1/4
f 391/2/4 392/2/4 396/2/4
f 395/2/4 396/2/4 397/2/4
f 396/2/4 392/2/4 398/2/4
f 397/2/4 396/2/4 398/2/4
f 394/1/4 395/1/4 399/1/4
f 395/2/4 397/2/4 400/2/4
f 399/1/4 395/1/4 400/1/4
f 397/4/4 398/4/4 401/4/4
f 400/2/4 397/2/4 401/2/4
f 398/2/4 392/2/4 402/2/4
f 401/4/4 398/4/4 402/4/4
f 402/2/4 392/2/4 403/2/4
f 400/2/4 401/2/4 404/2/4
f 401/2/4 402/2/4 404/2/4
f 404/2/4 402/2/4 405/2/4
f 406/1/4 407/1/4 409/1/4
f 407/2/4 408/2/4 409/2/4
f 409/2/4 408/2/4 410/2/4
f 406/1/4 409/1/4 411/1/4
f 410/2/4 408/2/4 412/2/4
f 406/1/4 411/1/4 413/1/4
f 411/2/4 412/2/4 414/2/4
f 413/1/4 411/1/4 414/1/4
f 412/2/4 408/2/4 415/2/4
f 414/2/4 412/2/4 415/2/4
f 416/2/4 417/2/4 418/2/4
f 418/2/4 417/2/4 419/2/4
f 420/2/4 421/2/4 422/2/4
f 422/2/4 421/2/4 423/2/4
f 424/2/4 425/2/4 426/2/4
f 426/2/4 425/2/4 427/2/4
f 427/2/4 425/2/4 428/2/4
f 429/2/4 430/2/4 431/2/4
f 431/2/4 430/2/4 432/2/4
f 432/2/4 430/2/4 433/2/4
f 434/2/4 435/2/4 436/2/4
f 436/2/4 435/2/4 437/2/4
f 437/2/4 435/2/4 438/2/4
f 439/2/4 440/2/4 441/2/4
f 441/2/4 440/2/4 442/2/4
f 445/2/5 444/2/5 443/2/5
f 446/2/5 444/2/5 445/2/5
f 449/3/5 448/3/5 447/3/5
f 450/3/5 448/3/5 449/3/5
f 453/1/5 452/1/5 451/1/5
f 454/1/5 452/1/5 453/1/5
f 457/2/5 456/2/5 455/2/5
f 458/2/5 456/2/5 457/2/5
f 462/2/5 460/2/5 459/2/5
f 462/2/5 461/2/5 460/2/5
f 463/2/5 461/2/5 462/2/5
f 468/3/5 465/3/5 464/3/5
f 469/3/5 465/3/5 468/3/5
f 470/1/5 467/1/5 466/1/5
f 471/1/5 467/1/5 470/1/5
f 472/1/5 470/1/5 466/1/5
f 473/1/5 467/1/5 471/1/5
f 474/1/5 472/1/5 466/1/5
f 474/1/5 473/1/5 472/1/5
f 475/1/5 467/1/5 473/1/5
f 475/1/5 473/1/5 474/1/5
f 478/2/5 477/2/5 476/2/5
f 479/2/5 477/2/5 478/2/5
f 480/2/5 477/2/5 479/2/5
f 484/2/5 482/2/5 481/2/5
f 484/2/5 483/2/5 482/2/5
f 485/2/5 483/2/5 484/2/5
f 490/1/5 487/1/5 486/1/5
f 491/1/5 487/1/5 490/1/5
f 493/3/5 489/3/5 488/3/5
f 494/3/5 489/3/5 493/3/5
f 496/1/5 495/1/5 494/1/5
f 497/1/5 495/1/5 496/1/5
f 498/1/5 495/1/5 497/1/5
f 499/1/5 495/1/5 498/1/5
f 500/1/5 492/1/5 491/1/5
f 501/1/5 492/1/5 500/1/5
f 502/1/5 500/1/5 499/1/5
f 503/1/5 500/1/5 502/1/5
f 506/2/5 505/2/5 504/2/5
f 507/2/5 505/2/5 506/2/5
f 508/2/5 505/2/5 507/2/5
f 513/2/5 510/2/5 509/2/5
f 513/2/5 511/2/5 510/2/5
f 514/2/5 511/2/5 513/2/5
f 516/2/5 513/2/5 512/2/5
f 516/2/5 515/2/5 514/2/5
f 516/2/5 514/2/5 513/2/5
f 517/2/5 515/2/5 516/2/5
f 520/2/5 519/2/5 518/2/5
f 521/2/5 519/2/5 520/2/5
f 524/2/5 523/2/5 522/2/5
f 525/2/5 523/2/5 524/2/5
f 526/2/5 523/2/5 525/2/5
f 527/2/5 523/2/5 526/2/5
f 528/2/5 526/2/5 525/2/5
f 529/2/5 526/2/5 528/2/5
f 530/2/5 526/2/5 529/2/5
f 531/2/6 532/2/6 533/2/6
f 533/2/6 532/2/6 534/2/6
f 535/2/6 536/2/6 537/2/6
f 537/2/6 536/2/6 538/2/6
f 539/2/6 540/2/6 541/2/6
f 541/2/6 540/2/6 542/2/6
f 542/2/6 540/2/6 543/2/6
f 544/2/6 545/2/6 547/2/6
f 545/2/6 546/2/6 547/2/6
f 547/2/6 546/2/6 548/2/6
f 549/2/6 550/2/6 551/2/6
f 551/2/6 550/2/6 552/2/6
f 552/2/6 550/2/6 553/2/6
f 554/2/6 555/2/6 557/2/6
f 555/2/6 556/2/6 557/2/6
f 557/2/6 556/2/6 558/2/6
f 559/2/6 560/2/6 562/2/6
f 562/2/6 560/2/6 563/2/6
f 561/2/6 562/2/6 565/2/6
f 563/2/6 564/2/6 565/2/6
f 562/2/6 563/2/6 565/2/6
f 565/2/6 564/2/6 566/2/6
f 567/2/6 568/2/6 569/2/6
f 569/2/6 568/2/6 570/2/6
f 571/2/6 572/2/6 573/2/6
f 573/2/6 572/2/6 574/2/6
f 574/2/6 572/2/6 575/2/6
f 575/2/6 572/2/6 576/2/6
f 574/2/6 575/2/6 577/2/6
f 577/2/6 575/2/6 578/2/6
f 579/2/6 580/2/6 583/2/6
f 583/2/6 580/2/6 584/2/6
f 581/3/6 582/3/6 587/3/6
f 587/3/6 582/3/6 588/3/6
f 589/2/6 590/2/6 591/2/6
f 591/2/6 590/2/6 592/2/6
f 585/2/6 586/2/6 594/2/6
f 594/2/6 586/2/6 595/2/6
f 592/2/6 593/2/6 596/2/6
f 596/2/6 593/2/6 597/2/6
f 598/3/6 599/3/6 602/3/6
f 602/3/6 599/3/6 603/3/6
f 600/2/6 601/2/6 604/2/6
f 604/2/6 601/2/6 605/2/6
f 600/2/6 604/2/6 606/2/6
f 605/2/6 601/2/6 607/2/6
f 600/2/6 606/2/6 608/2/6
f 606/2/6 607/2/6 608/2/6
f 607/2/6 601/2/6 609/2/6
f 608/2/6 607/2/6 609/2/6
f 610/3/6 611/3/6 612/3/6
f 612/3/6 611/3/6 613/3/6
f 614/2/6 615/2/6 618/2/6
f 618/2/6 615/2/6 619/2/6
f 616/2/6 617/2/6 620/2/6
f 620/2/6 617/2/6 621/2/6
f 622/2/6 623/2/6 626/2/6
f 626/2/6 623/2/6 627/2/6
f 624/2/6 625/2/6 628/2/6
f 628/2/6 625/2/6 629/2/6
f 630/2/6 631/2/6 632/2/6
f 632/2/6 631/2/6 633/2/6
f 634/2/6 635/2/6 636/2/6
f 636/2/6 635/2/6 637/2/6
f 638/2/6 639/2/6 640/2/6
f 640/2/6 639/2/6 641/2/6
