# MagicaVoxel @ Ephtracy

# group
o 

# material
mtllib tibu7vox.mtl
usemtl palette

# normals
vn -1 0 0
vn 1 0 0
vn 0 0 1
vn 0 0 -1
vn 0 -1 0
vn 0 1 0

# texcoords
vt 0.966797 0.5
vt 0.982422 0.5
vt 0.986328 0.5
vt 0.994141 0.5

# verts
v -0.9 0.3 0.3
v -0.9 0.3 0.2
v -0.9 0.4 0.3
v -0.9 0.4 0.2
v -0.9 0.9 0.3
v -0.9 0.9 0.2
v -0.9 1 0.3
v -0.9 1 0.2
v -0.8 0.4 0.2
v -0.8 0.4 0.1
v -0.8 0.5 0.2
v -0.8 0.5 0.1
v -0.8 0.8 0.2
v -0.8 0.8 0.1
v -0.8 0.9 0.2
v -0.8 0.9 0.1
v -0.7 0.5 0.1
v -0.7 0.5 0
v -0.7 0.6 0.1
v -0.7 0.6 0
v -0.7 0.7 0.1
v -0.7 0.7 0
v -0.7 0.8 0.1
v -0.7 0.8 0
v -0.6 0.5 0
v -0.6 0.5 -0.1
v -0.6 0.6 0
v -0.6 0.6 -0.1
v -0.6 0.7 0
v -0.6 0.7 -0.1
v -0.5 0.5 -0.1
v -0.5 0.5 -0.2
v -0.5 0.6 -0.1
v -0.5 0.6 -0.2
v -0.5 0.7 0
v -0.5 0.7 -0.1
v -0.5 0.8 0
v -0.5 0.8 -0.2
v -0.4 0.4 0.1
v -0.4 0.4 -0.2
v -0.4 0.5 0.2
v -0.4 0.5 0.1
v -0.4 0.5 0
v -0.4 0.5 -0.2
v -0.4 0.5 -0.3
v -0.4 0.6 0.2
v -0.4 0.6 0
v -0.4 0.6 -0.2
v -0.4 0.6 -0.3
v -0.4 0.8 0.2
v -0.4 0.8 0.1
v -0.4 0.8 0
v -0.4 0.8 -0.2
v -0.4 0.8 -0.3
v -0.4 0.9 0.1
v -0.4 0.9 -0.2
v -0.3 0.3 0
v -0.3 0.3 -0.1
v -0.3 0.4 0
v -0.3 0.4 -0.1
v -0.3 0.6 0.3
v -0.3 0.6 0.2
v -0.3 0.6 -0.3
v -0.3 0.6 -0.4
v -0.3 0.7 0.3
v -0.3 0.7 0.2
v -0.3 0.7 -0.3
v -0.3 0.7 -0.4
v -0.3 0.9 0
v -0.3 0.9 -0.1
v -0.3 1 0
v -0.3 1 -0.1
v -0.2 0.3 0.7
v -0.2 0.3 0.6
v -0.2 0.3 -0.7
v -0.2 0.3 -0.8
v -0.2 0.4 0.7
v -0.2 0.4 0.6
v -0.2 0.4 0.5
v -0.2 0.4 -0.6
v -0.2 0.4 -0.7
v -0.2 0.4 -0.8
v -0.2 0.5 0.6
v -0.2 0.5 0.5
v -0.2 0.5 -0.6
v -0.2 0.5 -0.7
v -0.1 0.5 0.5
v -0.1 0.5 0.4
v -0.1 0.5 -0.5
v -0.1 0.5 -0.6
v -0.1 0.6 0.5
v -0.1 0.6 0.4
v -0.1 0.6 -0.5
v -0.1 0.6 -0.6
v -0.1 1 0
v -0.1 1 -0.1
v -0.1 1.1 0
v -0.1 1.1 -0.1
v 0 0.6 0.4
v 0 0.6 0.3
v 0 0.6 -0.4
v 0 0.6 -0.5
v 0 0.7 0.4
v 0 0.7 0.3
v 0 0.7 -0.4
v 0 0.7 -0.5
v 0 1.1 0
v 0 1.1 -0.1
v 0 1.4 0
v 0 1.4 -0.1
v -0.8 0.3 0.3
v -0.8 0.3 0.2
v -0.8 0.4 0.3
v -0.8 0.4 0.2
v -0.8 0.5 0.2
v -0.8 0.8 0.2
v -0.8 0.9 0.3
v -0.8 0.9 0.2
v -0.8 1 0.3
v -0.8 1 0.2
v -0.7 0.4 0.2
v -0.7 0.4 0.1
v -0.7 0.5 0.2
v -0.7 0.5 0.1
v -0.7 0.6 0.1
v -0.7 0.7 0.1
v -0.7 0.8 0.2
v -0.7 0.8 0.1
v -0.7 0.9 0.2
v -0.7 0.9 0.1
v -0.6 0.5 0.1
v -0.6 0.5 0
v -0.6 0.6 0.1
v -0.6 0.6 0
v -0.6 0.7 0.1
v -0.6 0.7 0
v -0.6 0.8 0.1
v -0.6 0.8 0
v -0.1 0.3 0.7
v -0.1 0.3 0.6
v -0.1 0.3 -0.7
v -0.1 0.3 -0.8
v -0.1 0.4 0.7
v -0.1 0.4 0.6
v -0.1 0.4 -0.7
v -0.1 0.4 -0.8
v 0 0.4 0.6
v 0 0.4 0.5
v 0 0.4 -0.6
v 0 0.4 -0.7
v 0 0.5 0.6
v 0 0.5 0.5
v 0 0.5 -0.6
v 0 0.5 -0.7
v 0.1 0.5 0.5
v 0.1 0.5 0.4
v 0.1 0.5 -0.5
v 0.1 0.5 -0.6
v 0.1 0.6 0.5
v 0.1 0.6 0.4
v 0.1 0.6 -0.5
v 0.1 0.6 -0.6
v 0.1 1.3 0
v 0.1 1.3 -0.1
v 0.1 1.4 0
v 0.1 1.4 -0.1
v 0.2 0.6 0.4
v 0.2 0.6 0.3
v 0.2 0.6 -0.4
v 0.2 0.6 -0.5
v 0.2 0.7 0.4
v 0.2 0.7 0.3
v 0.2 0.7 -0.4
v 0.2 0.7 -0.5
v 0.2 1.2 0
v 0.2 1.2 -0.1
v 0.2 1.3 0
v 0.2 1.3 -0.1
v 0.3 1.1 0
v 0.3 1.1 -0.1
v 0.3 1.2 0
v 0.3 1.2 -0.1
v 0.4 1 0
v 0.4 1 -0.1
v 0.4 1.1 0
v 0.4 1.1 -0.1
v 0.6 0.3 0
v 0.6 0.3 -0.1
v 0.6 0.4 0
v 0.6 0.4 -0.1
v 0.6 0.6 0.3
v 0.6 0.6 0.2
v 0.6 0.6 -0.3
v 0.6 0.6 -0.4
v 0.6 0.7 0.3
v 0.6 0.7 0.2
v 0.6 0.7 -0.3
v 0.6 0.7 -0.4
v 0.6 0.9 0
v 0.6 0.9 -0.1
v 0.6 1 0
v 0.6 1 -0.1
v 0.7 0.4 0.1
v 0.7 0.4 -0.2
v 0.7 0.5 0.2
v 0.7 0.5 0.1
v 0.7 0.5 -0.2
v 0.7 0.5 -0.3
v 0.7 0.6 0.2
v 0.7 0.6 0.1
v 0.7 0.6 -0.2
v 0.7 0.6 -0.3
v 0.7 0.8 0.2
v 0.7 0.8 0.1
v 0.7 0.8 -0.2
v 0.7 0.8 -0.3
v 0.9 0.5 0.1
v 0.9 0.5 -0.2
v 0.9 0.6 0.1
v 0.9 0.6 -0.2
v 0.9 0.8 0.1
v 0.9 0.8 -0.2
v 0.9 0.9 0.1
v 0.9 0.9 -0.2
v 1 0.6 0.1
v 1 0.6 -0.2
v 1 0.8 0.1
v 1 0.8 -0.2
v -0.2 0.3 0.7
v -0.2 0.4 0.7
v -0.1 0.3 0.7
v -0.1 0.4 0.7
v -0.2 0.4 0.6
v -0.2 0.5 0.6
v -0.1 0.4 0.6
v 0 0.4 0.6
v 0 0.5 0.6
v -0.1 0.5 0.5
v -0.1 0.6 0.5
v 0 0.5 0.5
v 0.1 0.5 0.5
v 0.1 0.6 0.5
v 0 0.6 0.4
v 0 0.7 0.4
v 0.1 0.6 0.4
v 0.2 0.6 0.4
v 0.2 0.7 0.4
v -0.9 0.3 0.3
v -0.9 0.4 0.3
v -0.9 0.9 0.3
v -0.9 1 0.3
v -0.8 0.3 0.3
v -0.8 0.4 0.3
v -0.8 0.9 0.3
v -0.8 1 0.3
v -0.3 0.6 0.3
v -0.3 0.7 0.3
v 0 0.6 0.3
v 0 0.7 0.3
v 0.2 0.6 0.3
v 0.2 0.7 0.3
v 0.6 0.6 0.3
v 0.6 0.7 0.3
v -0.8 0.4 0.2
v -0.8 0.5 0.2
v -0.8 0.8 0.2
v -0.8 0.9 0.2
v -0.7 0.4 0.2
v -0.7 0.5 0.2
v -0.7 0.8 0.2
v -0.7 0.9 0.2
v -0.4 0.5 0.2
v -0.4 0.6 0.2
v -0.4 0.8 0.2
v -0.3 0.6 0.2
v -0.3 0.7 0.2
v 0.6 0.6 0.2
v 0.6 0.7 0.2
v 0.7 0.5 0.2
v 0.7 0.6 0.2
v 0.7 0.8 0.2
v -0.7 0.5 0.1
v -0.7 0.6 0.1
v -0.7 0.7 0.1
v -0.7 0.8 0.1
v -0.6 0.5 0.1
v -0.6 0.6 0.1
v -0.6 0.7 0.1
v -0.6 0.8 0.1
v -0.4 0.4 0.1
v -0.4 0.5 0.1
v -0.4 0.8 0.1
v -0.4 0.9 0.1
v 0.7 0.4 0.1
v 0.7 0.5 0.1
v 0.7 0.6 0.1
v 0.7 0.8 0.1
v 0.8 0.7 0.1
v 0.8 0.8 0.1
v 0.9 0.5 0.1
v 0.9 0.6 0.1
v 0.9 0.7 0.1
v 0.9 0.8 0.1
v 0.9 0.9 0.1
v 1 0.6 0.1
v 1 0.8 0.1
v -0.6 0.5 0
v -0.6 0.6 0
v -0.6 0.7 0
v -0.5 0.7 0
v -0.5 0.8 0
v -0.4 0.5 0
v -0.4 0.6 0
v -0.4 0.8 0
v -0.3 0.3 0
v -0.3 0.4 0
v -0.3 0.9 0
v -0.3 1 0
v -0.1 1 0
v -0.1 1.1 0
v 0 1.1 0
v 0 1.4 0
v 0.1 1.3 0
v 0.1 1.4 0
v 0.2 1.2 0
v 0.2 1.3 0
v 0.3 1.1 0
v 0.3 1.2 0
v 0.4 1 0
v 0.4 1.1 0
v 0.6 0.3 0
v 0.6 0.4 0
v 0.6 0.9 0
v 0.6 1 0
v -0.1 0.5 -0.5
v -0.1 0.6 -0.5
v 0 0.6 -0.5
v 0.1 0.5 -0.5
v 0.1 0.6 -0.5
v -0.2 0.4 -0.6
v -0.2 0.5 -0.6
v -0.1 0.5 -0.6
v 0 0.4 -0.6
v 0 0.5 -0.6
v -0.2 0.3 -0.7
v -0.2 0.4 -0.7
v -0.1 0.3 -0.7
v -0.1 0.4 -0.7
v -0.2 0.3 0.6
v -0.2 0.4 0.6
v -0.1 0.3 0.6
v -0.1 0.4 0.6
v -0.2 0.4 0.5
v -0.2 0.5 0.5
v -0.1 0.5 0.5
v 0 0.4 0.5
v 0 0.5 0.5
v -0.1 0.5 0.4
v -0.1 0.6 0.4
v 0 0.6 0.4
v 0.1 0.5 0.4
v 0.1 0.6 0.4
v -0.9 0.3 0.2
v -0.9 0.4 0.2
v -0.9 0.9 0.2
v -0.9 1 0.2
v -0.8 0.3 0.2
v -0.8 0.4 0.2
v -0.8 0.5 0.2
v -0.8 0.8 0.2
v -0.8 0.9 0.2
v -0.8 1 0.2
v -0.8 0.4 0.1
v -0.8 0.5 0.1
v -0.8 0.8 0.1
v -0.8 0.9 0.1
v -0.7 0.4 0.1
v -0.7 0.5 0.1
v -0.7 0.6 0.1
v -0.7 0.7 0.1
v -0.7 0.8 0.1
v -0.7 0.9 0.1
v -0.7 0.5 0
v -0.7 0.6 0
v -0.7 0.7 0
v -0.7 0.8 0
v -0.6 0.5 0
v -0.6 0.6 0
v -0.6 0.7 0
v -0.6 0.8 0
v -0.6 0.5 -0.1
v -0.6 0.6 -0.1
v -0.6 0.7 -0.1
v -0.5 0.5 -0.1
v -0.5 0.6 -0.1
v -0.5 0.7 -0.1
v -0.3 0.3 -0.1
v -0.3 0.4 -0.1
v -0.3 0.9 -0.1
v -0.3 1 -0.1
v -0.1 1 -0.1
v -0.1 1.1 -0.1
v 0 1.1 -0.1
v 0 1.4 -0.1
v 0.1 1.3 -0.1
v 0.1 1.4 -0.1
v 0.2 1.2 -0.1
v 0.2 1.3 -0.1
v 0.3 1.1 -0.1
v 0.3 1.2 -0.1
v 0.4 1 -0.1
v 0.4 1.1 -0.1
v 0.6 0.3 -0.1
v 0.6 0.4 -0.1
v 0.6 0.9 -0.1
v 0.6 1 -0.1
v -0.5 0.5 -0.2
v -0.5 0.6 -0.2
v -0.5 0.8 -0.2
v -0.4 0.4 -0.2
v -0.4 0.5 -0.2
v -0.4 0.6 -0.2
v -0.4 0.8 -0.2
v -0.4 0.9 -0.2
v 0.7 0.4 -0.2
v 0.7 0.5 -0.2
v 0.7 0.6 -0.2
v 0.7 0.8 -0.2
v 0.8 0.7 -0.2
v 0.8 0.8 -0.2
v 0.9 0.5 -0.2
v 0.9 0.6 -0.2
v 0.9 0.7 -0.2
v 0.9 0.8 -0.2
v 0.9 0.9 -0.2
v 1 0.6 -0.2
v 1 0.8 -0.2
v -0.4 0.5 -0.3
v -0.4 0.6 -0.3
v -0.4 0.8 -0.3
v -0.3 0.6 -0.3
v -0.3 0.7 -0.3
v 0.6 0.6 -0.3
v 0.6 0.7 -0.3
v 0.7 0.5 -0.3
v 0.7 0.6 -0.3
v 0.7 0.8 -0.3
v -0.3 0.6 -0.4
v -0.3 0.7 -0.4
v 0 0.6 -0.4
v 0 0.7 -0.4
v 0.2 0.6 -0.4
v 0.2 0.7 -0.4
v 0.6 0.6 -0.4
v 0.6 0.7 -0.4
v 0 0.6 -0.5
v 0 0.7 -0.5
v 0.1 0.6 -0.5
v 0.2 0.6 -0.5
v 0.2 0.7 -0.5
v -0.1 0.5 -0.6
v -0.1 0.6 -0.6
v 0 0.5 -0.6
v 0.1 0.5 -0.6
v 0.1 0.6 -0.6
v -0.2 0.4 -0.7
v -0.2 0.5 -0.7
v -0.1 0.4 -0.7
v 0 0.4 -0.7
v 0 0.5 -0.7
v -0.2 0.3 -0.8
v -0.2 0.4 -0.8
v -0.1 0.3 -0.8
v -0.1 0.4 -0.8
v -0.2 0.3 0.7
v -0.1 0.3 0.7
v -0.2 0.3 0.6
v -0.1 0.3 0.6
v -0.9 0.3 0.3
v -0.8 0.3 0.3
v -0.9 0.3 0.2
v -0.8 0.3 0.2
v -0.3 0.3 0
v 0.6 0.3 0
v -0.3 0.3 -0.1
v 0.6 0.3 -0.1
v -0.2 0.3 -0.7
v -0.1 0.3 -0.7
v -0.2 0.3 -0.8
v -0.1 0.3 -0.8
v -0.2 0.4 0.6
v -0.1 0.4 0.6
v 0 0.4 0.6
v -0.2 0.4 0.5
v 0 0.4 0.5
v -0.8 0.4 0.2
v -0.7 0.4 0.2
v -0.8 0.4 0.1
v -0.7 0.4 0.1
v -0.4 0.4 0.1
v 0.7 0.4 0.1
v -0.3 0.4 0
v 0.6 0.4 0
v -0.3 0.4 -0.1
v 0.6 0.4 -0.1
v -0.4 0.4 -0.2
v 0.7 0.4 -0.2
v -0.2 0.4 -0.6
v 0 0.4 -0.6
v -0.2 0.4 -0.7
v -0.1 0.4 -0.7
v 0 0.4 -0.7
v -0.1 0.5 0.5
v 0 0.5 0.5
v 0.1 0.5 0.5
v -0.1 0.5 0.4
v 0.1 0.5 0.4
v -0.4 0.5 0.2
v 0.7 0.5 0.2
v -0.7 0.5 0.1
v -0.6 0.5 0.1
v -0.4 0.5 0.1
v 0.7 0.5 0.1
v 0.9 0.5 0.1
v -0.7 0.5 0
v -0.6 0.5 0
v -0.4 0.5 0
v -0.6 0.5 -0.1
v -0.5 0.5 -0.1
v -0.5 0.5 -0.2
v -0.4 0.5 -0.2
v 0.7 0.5 -0.2
v 0.9 0.5 -0.2
v -0.4 0.5 -0.3
v 0.7 0.5 -0.3
v -0.1 0.5 -0.5
v 0.1 0.5 -0.5
v -0.1 0.5 -0.6
v 0 0.5 -0.6
v 0.1 0.5 -0.6
v 0 0.6 0.4
v 0.1 0.6 0.4
v 0.2 0.6 0.4
v -0.3 0.6 0.3
v 0 0.6 0.3
v 0.2 0.6 0.3
v 0.6 0.6 0.3
v -0.3 0.6 0.2
v 0.6 0.6 0.2
v 0.9 0.6 0.1
v 1 0.6 0.1
v 0.9 0.6 -0.2
v 1 0.6 -0.2
v -0.3 0.6 -0.3
v 0.6 0.6 -0.3
v -0.3 0.6 -0.4
v 0 0.6 -0.4
v 0.2 0.6 -0.4
v 0.6 0.6 -0.4
v 0 0.6 -0.5
v 0.1 0.6 -0.5
v 0.2 0.6 -0.5
v -0.2 0.4 0.7
v -0.1 0.4 0.7
v -0.2 0.4 0.6
v -0.1 0.4 0.6
v -0.2 0.4 -0.7
v -0.1 0.4 -0.7
v -0.2 0.4 -0.8
v -0.1 0.4 -0.8
v -0.2 0.5 0.6
v 0 0.5 0.6
v -0.2 0.5 0.5
v -0.1 0.5 0.5
v 0 0.5 0.5
v -0.2 0.5 -0.6
v -0.1 0.5 -0.6
v 0 0.5 -0.6
v -0.2 0.5 -0.7
v 0 0.5 -0.7
v -0.1 0.6 0.5
v 0.1 0.6 0.5
v -0.1 0.6 0.4
v 0 0.6 0.4
v 0.1 0.6 0.4
v -0.1 0.6 -0.5
v 0 0.6 -0.5
v 0.1 0.6 -0.5
v -0.1 0.6 -0.6
v 0.1 0.6 -0.6
v 0 0.7 0.4
v 0.2 0.7 0.4
v -0.3 0.7 0.3
v 0 0.7 0.3
v 0.2 0.7 0.3
v 0.6 0.7 0.3
v -0.3 0.7 0.2
v 0.6 0.7 0.2
v -0.6 0.7 0
v -0.5 0.7 0
v -0.6 0.7 -0.1
v -0.5 0.7 -0.1
v -0.3 0.7 -0.3
v 0.6 0.7 -0.3
v -0.3 0.7 -0.4
v 0 0.7 -0.4
v 0.2 0.7 -0.4
v 0.6 0.7 -0.4
v 0 0.7 -0.5
v 0.2 0.7 -0.5
v -0.4 0.8 0.2
v 0.7 0.8 0.2
v -0.7 0.8 0.1
v -0.6 0.8 0.1
v -0.4 0.8 0.1
v 0.7 0.8 0.1
v 0.9 0.8 0.1
v 1 0.8 0.1
v -0.7 0.8 0
v -0.6 0.8 0
v -0.5 0.8 0
v -0.4 0.8 0
v -0.5 0.8 -0.2
v -0.4 0.8 -0.2
v 0.7 0.8 -0.2
v 0.9 0.8 -0.2
v 1 0.8 -0.2
v -0.4 0.8 -0.3
v 0.7 0.8 -0.3
v -0.8 0.9 0.2
v -0.7 0.9 0.2
v -0.8 0.9 0.1
v -0.7 0.9 0.1
v -0.4 0.9 0.1
v 0.9 0.9 0.1
v -0.3 0.9 0
v 0.6 0.9 0
v -0.3 0.9 -0.1
v 0.6 0.9 -0.1
v -0.4 0.9 -0.2
v 0.9 0.9 -0.2
v -0.9 1 0.3
v -0.8 1 0.3
v -0.9 1 0.2
v -0.8 1 0.2
v -0.3 1 0
v -0.1 1 0
v 0.4 1 0
v 0.6 1 0
v -0.3 1 -0.1
v -0.1 1 -0.1
v 0.4 1 -0.1
v 0.6 1 -0.1
v -0.1 1.1 0
v 0 1.1 0
v 0.3 1.1 0
v 0.4 1.1 0
v -0.1 1.1 -0.1
v 0 1.1 -0.1
v 0.3 1.1 -0.1
v 0.4 1.1 -0.1
v 0.2 1.2 0
v 0.3 1.2 0
v 0.2 1.2 -0.1
v 0.3 1.2 -0.1
v 0.1 1.3 0
v 0.2 1.3 0
v 0.1 1.3 -0.1
v 0.2 1.3 -0.1
v 0 1.4 0
v 0.1 1.4 0
v 0 1.4 -0.1
v 0.1 1.4 -0.1

# faces
f 3/3/1 2/3/1 1/3/1
f 4/3/1 2/3/1 3/3/1
f 5/2/1 4/2/1 3/2/1
f 6/2/1 4/2/1 5/2/1
f 7/3/1 6/3/1 5/3/1
f 8/3/1 6/3/1 7/3/1
f 11/3/1 10/3/1 9/3/1
f 12/3/1 10/3/1 11/3/1
f 13/2/1 12/2/1 11/2/1
f 14/2/1 12/2/1 13/2/1
f 15/3/1 14/3/1 13/3/1
f 16/3/1 14/3/1 15/3/1
f 19/3/1 18/3/1 17/3/1
f 20/3/1 18/3/1 19/3/1
f 21/2/1 20/2/1 19/2/1
f 22/2/1 20/2/1 21/2/1
f 23/3/1 22/3/1 21/3/1
f 24/3/1 22/3/1 23/3/1
f 27/1/1 26/1/1 25/1/1
f 28/1/1 26/1/1 27/1/1
f 29/2/1 28/2/1 27/2/1
f 30/2/1 28/2/1 29/2/1
f 33/1/1 32/1/1 31/1/1
f 34/1/1 32/1/1 33/1/1
f 36/2/1 34/2/1 33/2/1
f 37/2/1 36/2/1 35/2/1
f 38/2/1 34/2/1 36/2/1
f 38/2/1 36/2/1 37/2/1
f 42/1/1 40/1/1 39/1/1
f 43/1/1 40/1/1 42/1/1
f 44/1/1 40/1/1 43/1/1
f 46/1/1 42/1/1 41/1/1
f 46/1/1 43/1/1 42/1/1
f 47/1/1 43/1/1 46/1/1
f 48/1/1 45/1/1 44/1/1
f 49/1/1 45/1/1 48/1/1
f 50/2/1 47/2/1 46/2/1
f 51/2/1 47/2/1 50/2/1
f 52/2/1 47/2/1 51/2/1
f 53/2/1 49/2/1 48/2/1
f 54/2/1 49/2/1 53/2/1
f 55/2/1 52/2/1 51/2/1
f 55/2/1 53/2/1 52/2/1
f 56/2/1 53/2/1 55/2/1
f 59/1/1 58/1/1 57/1/1
f 60/1/1 58/1/1 59/1/1
f 65/2/1 62/2/1 61/2/1
f 66/2/1 62/2/1 65/2/1
f 67/2/1 64/2/1 63/2/1
f 68/2/1 64/2/1 67/2/1
f 71/2/1 70/2/1 69/2/1
f 72/2/1 70/2/1 71/2/1
f 77/2/1 74/2/1 73/2/1
f 78/2/1 74/2/1 77/2/1
f 81/2/1 76/2/1 75/2/1
f 82/2/1 76/2/1 81/2/1
f 83/2/1 79/2/1 78/2/1
f 84/2/1 79/2/1 83/2/1
f 85/2/1 81/2/1 80/2/1
f 86/2/1 81/2/1 85/2/1
f 91/2/1 88/2/1 87/2/1
f 92/2/1 88/2/1 91/2/1
f 93/2/1 90/2/1 89/2/1
f 94/2/1 90/2/1 93/2/1
f 97/2/1 96/2/1 95/2/1
f 98/2/1 96/2/1 97/2/1
f 103/2/1 100/2/1 99/2/1
f 104/2/1 100/2/1 103/2/1
f 105/2/1 102/2/1 101/2/1
f 106/2/1 102/2/1 105/2/1
f 109/2/1 108/2/1 107/2/1
f 110/2/1 108/2/1 109/2/1
f 111/3/2 112/3/2 113/3/2
f 113/3/2 112/3/2 114/3/2
f 113/2/2 114/2/2 115/2/2
f 113/2/2 115/2/2 116/2/2
f 113/2/2 116/2/2 117/2/2
f 117/2/2 116/2/2 118/2/2
f 117/3/2 118/3/2 119/3/2
f 119/3/2 118/3/2 120/3/2
f 121/3/2 122/3/2 123/3/2
f 123/3/2 122/3/2 124/3/2
f 123/2/2 124/2/2 125/2/2
f 123/2/2 125/2/2 126/2/2
f 123/2/2 126/2/2 127/2/2
f 127/2/2 126/2/2 128/2/2
f 127/3/2 128/3/2 129/3/2
f 129/3/2 128/3/2 130/3/2
f 131/3/2 132/3/2 133/3/2
f 133/3/2 132/3/2 134/3/2
f 133/2/2 134/2/2 135/2/2
f 135/2/2 134/2/2 136/2/2
f 135/3/2 136/3/2 137/3/2
f 137/3/2 136/3/2 138/3/2
f 139/2/2 140/2/2 143/2/2
f 143/2/2 140/2/2 144/2/2
f 141/2/2 142/2/2 145/2/2
f 145/2/2 142/2/2 146/2/2
f 147/2/2 148/2/2 151/2/2
f 151/2/2 148/2/2 152/2/2
f 149/2/2 150/2/2 153/2/2
f 153/2/2 150/2/2 154/2/2
f 155/2/2 156/2/2 159/2/2
f 159/2/2 156/2/2 160/2/2
f 157/2/2 158/2/2 161/2/2
f 161/2/2 158/2/2 162/2/2
f 163/2/2 164/2/2 165/2/2
f 165/2/2 164/2/2 166/2/2
f 167/2/2 168/2/2 171/2/2
f 171/2/2 168/2/2 172/2/2
f 169/2/2 170/2/2 173/2/2
f 173/2/2 170/2/2 174/2/2
f 175/2/2 176/2/2 177/2/2
f 177/2/2 176/2/2 178/2/2
f 179/2/2 180/2/2 181/2/2
f 181/2/2 180/2/2 182/2/2
f 183/2/2 184/2/2 185/2/2
f 185/2/2 184/2/2 186/2/2
f 187/1/2 188/1/2 189/1/2
f 189/1/2 188/1/2 190/1/2
f 191/2/2 192/2/2 195/2/2
f 195/2/2 192/2/2 196/2/2
f 193/2/2 194/2/2 197/2/2
f 197/2/2 194/2/2 198/2/2
f 199/2/2 200/2/2 201/2/2
f 201/2/2 200/2/2 202/2/2
f 203/1/2 204/1/2 206/1/2
f 206/1/2 204/1/2 207/1/2
f 205/1/2 206/1/2 209/1/2
f 209/1/2 206/1/2 210/1/2
f 207/1/2 208/1/2 211/1/2
f 211/1/2 208/1/2 212/1/2
f 209/2/2 210/2/2 213/2/2
f 213/2/2 210/2/2 214/2/2
f 211/2/2 212/2/2 215/2/2
f 215/2/2 212/2/2 216/2/2
f 217/1/2 218/1/2 219/1/2
f 219/1/2 218/1/2 220/1/2
f 221/2/2 222/2/2 223/2/2
f 223/2/2 222/2/2 224/2/2
f 225/2/2 226/2/2 227/2/2
f 227/2/2 226/2/2 228/2/2
f 231/2/3 230/2/3 229/2/3
f 232/2/3 230/2/3 231/2/3
f 235/2/3 234/2/3 233/2/3
f 236/2/3 234/2/3 235/2/3
f 237/2/3 234/2/3 236/2/3
f 240/2/3 239/2/3 238/2/3
f 241/2/3 239/2/3 240/2/3
f 242/2/3 239/2/3 241/2/3
f 245/2/3 244/2/3 243/2/3
f 246/2/3 244/2/3 245/2/3
f 247/2/3 244/2/3 246/2/3
f 252/3/3 249/3/3 248/3/3
f 253/2/3 250/2/3 249/2/3
f 253/3/3 249/3/3 252/3/3
f 254/3/3 251/3/3 250/3/3
f 254/2/3 250/2/3 253/2/3
f 255/3/3 251/3/3 254/3/3
f 258/2/3 257/2/3 256/2/3
f 259/2/3 257/2/3 258/2/3
f 262/2/3 261/2/3 260/2/3
f 263/2/3 261/2/3 262/2/3
f 268/3/3 265/3/3 264/3/3
f 269/2/3 266/2/3 265/2/3
f 269/3/3 265/3/3 268/3/3
f 270/3/3 267/3/3 266/3/3
f 270/2/3 266/2/3 269/2/3
f 271/3/3 267/3/3 270/3/3
f 275/1/3 273/1/3 272/1/3
f 275/2/3 274/2/3 273/2/3
f 276/2/3 274/2/3 275/2/3
f 277/1/3 275/1/3 272/1/3
f 278/2/3 274/2/3 276/2/3
f 279/1/3 277/1/3 272/1/3
f 280/2/3 278/2/3 277/2/3
f 280/1/3 277/1/3 279/1/3
f 281/2/3 274/2/3 278/2/3
f 281/2/3 278/2/3 280/2/3
f 286/3/3 283/3/3 282/3/3
f 287/2/3 284/2/3 283/2/3
f 287/3/3 283/3/3 286/3/3
f 288/3/3 285/3/3 284/3/3
f 288/2/3 284/2/3 287/2/3
f 289/3/3 285/3/3 288/3/3
f 294/1/3 291/1/3 290/1/3
f 295/1/3 291/1/3 294/1/3
f 297/2/3 293/2/3 292/2/3
f 298/2/3 297/2/3 296/2/3
f 299/2/3 293/2/3 297/2/3
f 299/2/3 297/2/3 298/2/3
f 300/1/3 296/1/3 295/1/3
f 301/2/3 298/2/3 296/2/3
f 301/1/3 296/1/3 300/1/3
f 302/4/3 299/4/3 298/4/3
f 302/2/3 298/2/3 301/2/3
f 303/2/3 293/2/3 299/2/3
f 303/4/3 299/4/3 302/4/3
f 304/2/3 293/2/3 303/2/3
f 305/2/3 302/2/3 301/2/3
f 305/2/3 303/2/3 302/2/3
f 306/2/3 303/2/3 305/2/3
f 310/2/3 309/2/3 308/2/3
f 312/1/3 308/1/3 307/1/3
f 313/2/3 311/2/3 310/2/3
f 313/1/3 308/1/3 312/1/3
f 313/2/3 310/2/3 308/2/3
f 314/2/3 311/2/3 313/2/3
f 319/2/3 318/2/3 317/2/3
f 321/2/3 320/2/3 319/2/3
f 323/2/3 322/2/3 321/2/3
f 324/2/3 322/2/3 323/2/3
f 325/2/3 323/2/3 321/2/3
f 326/2/3 323/2/3 325/2/3
f 327/2/3 321/2/3 319/2/3
f 327/2/3 325/2/3 321/2/3
f 328/2/3 325/2/3 327/2/3
f 329/2/3 319/2/3 317/2/3
f 329/2/3 327/2/3 319/2/3
f 330/2/3 327/2/3 329/2/3
f 331/1/3 316/1/3 315/1/3
f 332/1/3 316/1/3 331/1/3
f 333/2/3 329/2/3 317/2/3
f 334/2/3 329/2/3 333/2/3
f 337/2/3 336/2/3 335/2/3
f 338/2/3 337/2/3 335/2/3
f 339/2/3 337/2/3 338/2/3
f 342/2/3 341/2/3 340/2/3
f 343/2/3 342/2/3 340/2/3
f 344/2/3 342/2/3 343/2/3
f 347/2/3 346/2/3 345/2/3
f 348/2/3 346/2/3 347/2/3
f 349/2/4 350/2/4 351/2/4
f 351/2/4 350/2/4 352/2/4
f 353/2/4 354/2/4 355/2/4
f 353/2/4 355/2/4 356/2/4
f 356/2/4 355/2/4 357/2/4
f 358/2/4 359/2/4 360/2/4
f 358/2/4 360/2/4 361/2/4
f 361/2/4 360/2/4 362/2/4
f 363/3/4 364/3/4 367/3/4
f 364/2/4 365/2/4 368/2/4
f 367/3/4 364/3/4 368/3/4
f 368/2/4 365/2/4 369/2/4
f 369/2/4 365/2/4 370/2/4
f 365/3/4 366/3/4 371/3/4
f 370/2/4 365/2/4 371/2/4
f 371/3/4 366/3/4 372/3/4
f 373/3/4 374/3/4 377/3/4
f 374/2/4 375/2/4 378/2/4
f 377/3/4 374/3/4 378/3/4
f 378/2/4 375/2/4 379/2/4
f 379/2/4 375/2/4 380/2/4
f 375/3/4 376/3/4 381/3/4
f 380/2/4 375/2/4 381/2/4
f 381/3/4 376/3/4 382/3/4
f 383/3/4 384/3/4 387/3/4
f 384/2/4 385/2/4 388/2/4
f 387/3/4 384/3/4 388/3/4
f 385/3/4 386/3/4 389/3/4
f 388/2/4 385/2/4 389/2/4
f 389/3/4 386/3/4 390/3/4
f 391/1/4 392/1/4 394/1/4
f 392/2/4 393/2/4 395/2/4
f 394/1/4 392/1/4 395/1/4
f 395/2/4 393/2/4 396/2/4
f 399/2/4 400/2/4 401/2/4
f 401/2/4 402/2/4 403/2/4
f 403/2/4 404/2/4 405/2/4
f 405/2/4 404/2/4 406/2/4
f 403/2/4 405/2/4 407/2/4
f 407/2/4 405/2/4 408/2/4
f 401/2/4 403/2/4 409/2/4
f 403/2/4 407/2/4 409/2/4
f 409/2/4 407/2/4 410/2/4
f 399/2/4 401/2/4 411/2/4
f 401/2/4 409/2/4 411/2/4
f 411/2/4 409/2/4 412/2/4
f 397/1/4 398/1/4 413/1/4
f 413/1/4 398/1/4 414/1/4
f 399/2/4 411/2/4 415/2/4
f 415/2/4 411/2/4 416/2/4
f 417/1/4 418/1/4 421/1/4
f 418/2/4 419/2/4 422/2/4
f 421/1/4 418/1/4 422/1/4
f 422/2/4 419/2/4 423/2/4
f 420/1/4 421/1/4 425/1/4
f 425/1/4 421/1/4 426/1/4
f 423/2/4 424/2/4 428/2/4
f 427/2/4 428/2/4 429/2/4
f 428/2/4 424/2/4 430/2/4
f 429/2/4 428/2/4 430/2/4
f 426/1/4 427/1/4 431/1/4
f 427/2/4 429/2/4 432/2/4
f 431/1/4 427/1/4 432/1/4
f 429/4/4 430/4/4 433/4/4
f 432/2/4 429/2/4 433/2/4
f 430/2/4 424/2/4 434/2/4
f 433/4/4 430/4/4 434/4/4
f 434/2/4 424/2/4 435/2/4
f 432/2/4 433/2/4 436/2/4
f 433/2/4 434/2/4 436/2/4
f 436/2/4 434/2/4 437/2/4
f 438/1/4 439/1/4 441/1/4
f 439/2/4 440/2/4 441/2/4
f 441/2/4 440/2/4 442/2/4
f 438/1/4 441/1/4 443/1/4
f 442/2/4 440/2/4 444/2/4
f 438/1/4 443/1/4 445/1/4
f 443/2/4 444/2/4 446/2/4
f 445/1/4 443/1/4 446/1/4
f 444/2/4 440/2/4 447/2/4
f 446/2/4 444/2/4 447/2/4
f 448/2/4 449/2/4 450/2/4
f 450/2/4 449/2/4 451/2/4
f 452/2/4 453/2/4 454/2/4
f 454/2/4 453/2/4 455/2/4
f 456/2/4 457/2/4 458/2/4
f 458/2/4 457/2/4 459/2/4
f 459/2/4 457/2/4 460/2/4
f 461/2/4 462/2/4 463/2/4
f 463/2/4 462/2/4 464/2/4
f 464/2/4 462/2/4 465/2/4
f 466/2/4 467/2/4 468/2/4
f 468/2/4 467/2/4 469/2/4
f 469/2/4 467/2/4 470/2/4
f 471/2/4 472/2/4 473/2/4
f 473/2/4 472/2/4 474/2/4
f 477/2/5 476/2/5 475/2/5
f 478/2/5 476/2/5 477/2/5
f 481/3/5 480/3/5 479/3/5
f 482/3/5 480/3/5 481/3/5
f 485/1/5 484/1/5 483/1/5
f 486/1/5 484/1/5 485/1/5
f 489/2/5 488/2/5 487/2/5
f 490/2/5 488/2/5 489/2/5
f 494/2/5 492/2/5 491/2/5
f 494/2/5 493/2/5 492/2/5
f 495/2/5 493/2/5 494/2/5
f 498/3/5 497/3/5 496/3/5
f 499/3/5 497/3/5 498/3/5
f 502/1/5 501/1/5 500/1/5
f 503/1/5 501/1/5 502/1/5
f 504/1/5 502/1/5 500/1/5
f 505/1/5 501/1/5 503/1/5
f 506/1/5 504/1/5 500/1/5
f 506/1/5 505/1/5 504/1/5
f 507/1/5 501/1/5 505/1/5
f 507/1/5 505/1/5 506/1/5
f 510/2/5 509/2/5 508/2/5
f 511/2/5 509/2/5 510/2/5
f 512/2/5 509/2/5 511/2/5
f 516/2/5 514/2/5 513/2/5
f 516/2/5 515/2/5 514/2/5
f 517/2/5 515/2/5 516/2/5
f 522/1/5 519/1/5 518/1/5
f 523/1/5 519/1/5 522/1/5
f 525/3/5 521/3/5 520/3/5
f 526/3/5 521/3/5 525/3/5
f 528/1/5 527/1/5 526/1/5
f 529/1/5 527/1/5 528/1/5
f 530/1/5 527/1/5 529/1/5
f 531/1/5 527/1/5 530/1/5
f 532/1/5 524/1/5 523/1/5
f 533/1/5 524/1/5 532/1/5
f 534/1/5 532/1/5 531/1/5
f 535/1/5 532/1/5 534/1/5
f 538/2/5 537/2/5 536/2/5
f 539/2/5 537/2/5 538/2/5
f 540/2/5 537/2/5 539/2/5
f 545/2/5 542/2/5 541/2/5
f 545/2/5 543/2/5 542/2/5
f 546/2/5 543/2/5 545/2/5
f 548/2/5 545/2/5 544/2/5
f 548/2/5 547/2/5 546/2/5
f 548/2/5 546/2/5 545/2/5
f 549/2/5 547/2/5 548/2/5
f 552/2/5 551/2/5 550/2/5
f 553/2/5 551/2/5 552/2/5
f 556/2/5 555/2/5 554/2/5
f 557/2/5 555/2/5 556/2/5
f 558/2/5 555/2/5 557/2/5
f 559/2/5 555/2/5 558/2/5
f 560/2/5 558/2/5 557/2/5
f 561/2/5 558/2/5 560/2/5
f 562/2/5 558/2/5 561/2/5
f 563/2/6 564/2/6 565/2/6
f 565/2/6 564/2/6 566/2/6
f 567/2/6 568/2/6 569/2/6
f 569/2/6 568/2/6 570/2/6
f 571/2/6 572/2/6 573/2/6
f 573/2/6 572/2/6 574/2/6
f 574/2/6 572/2/6 575/2/6
f 576/2/6 577/2/6 579/2/6
f 577/2/6 578/2/6 579/2/6
f 579/2/6 578/2/6 580/2/6
f 581/2/6 582/2/6 583/2/6
f 583/2/6 582/2/6 584/2/6
f 584/2/6 582/2/6 585/2/6
f 586/2/6 587/2/6 589/2/6
f 587/2/6 588/2/6 589/2/6
f 589/2/6 588/2/6 590/2/6
f 591/2/6 592/2/6 594/2/6
f 594/2/6 592/2/6 595/2/6
f 593/2/6 594/2/6 597/2/6
f 595/2/6 596/2/6 597/2/6
f 594/2/6 595/2/6 597/2/6
f 597/2/6 596/2/6 598/2/6
f 599/2/6 600/2/6 601/2/6
f 601/2/6 600/2/6 602/2/6
f 603/2/6 604/2/6 605/2/6
f 605/2/6 604/2/6 606/2/6
f 606/2/6 604/2/6 607/2/6
f 607/2/6 604/2/6 608/2/6
f 606/2/6 607/2/6 609/2/6
f 609/2/6 607/2/6 610/2/6
f 611/2/6 612/2/6 615/2/6
f 615/2/6 612/2/6 616/2/6
f 613/3/6 614/3/6 619/3/6
f 619/3/6 614/3/6 620/3/6
f 621/2/6 622/2/6 623/2/6
f 623/2/6 622/2/6 624/2/6
f 617/2/6 618/2/6 626/2/6
f 626/2/6 618/2/6 627/2/6
f 624/2/6 625/2/6 628/2/6
f 628/2/6 625/2/6 629/2/6
f 630/3/6 631/3/6 632/3/6
f 632/3/6 631/3/6 633/3/6
f 634/2/6 635/2/6 636/2/6
f 636/2/6 635/2/6 637/2/6
f 634/2/6 636/2/6 638/2/6
f 637/2/6 635/2/6 639/2/6
f 634/2/6 638/2/6 640/2/6
f 638/2/6 639/2/6 640/2/6
f 639/2/6 635/2/6 641/2/6
f 640/2/6 639/2/6 641/2/6
f 642/3/6 643/3/6 644/3/6
f 644/3/6 643/3/6 645/3/6
f 646/2/6 647/2/6 650/2/6
f 650/2/6 647/2/6 651/2/6
f 648/2/6 649/2/6 652/2/6
f 652/2/6 649/2/6 653/2/6
f 654/2/6 655/2/6 658/2/6
f 658/2/6 655/2/6 659/2/6
f 656/2/6 657/2/6 660/2/6
f 660/2/6 657/2/6 661/2/6
f 662/2/6 663/2/6 664/2/6
f 664/2/6 663/2/6 665/2/6
f 666/2/6 667/2/6 668/2/6
f 668/2/6 667/2/6 669/2/6
f 670/2/6 671/2/6 672/2/6
f 672/2/6 671/2/6 673/2/6
